<?xml version="1.0" standalone="no"?>
<!DOCTYPE svg PUBLIC "-//W3C//DTD SVG 1.1//EN" "http://www.w3.org/Graphics/SVG/1.1/DTD/svg11.dtd" >
<svg xmlns="http://www.w3.org/2000/svg">
<metadata></metadata>
<defs>
<font id="linden_hillregular" horiz-adv-x="1634" >
<font-face units-per-em="2048" ascent="1638" descent="-410" />
<missing-glyph horiz-adv-x="378" />
<glyph horiz-adv-x="2048" />
<glyph horiz-adv-x="2048" />
<glyph unicode="&#xd;" horiz-adv-x="682" />
<glyph unicode=" "  horiz-adv-x="378" />
<glyph unicode="&#x09;" horiz-adv-x="378" />
<glyph unicode="&#xa0;" horiz-adv-x="378" />
<glyph unicode="!" horiz-adv-x="624" d="M226 68q0 22 35.5 55t56 33t51.5 -34t31 -55.5t-33.5 -54t-54 -32.5t-53.5 33t-33 55zM228 1270q0 48 108 65q18 3 26 3q26 0 27 -23q-2 -128 -27 -402t-26.5 -345.5t-2.5 -101.5t-1 -47t-1 -37t-3 -31t-6 -21q-7 -18 -20 -18t-19 6q-5 6 -9 16q-18 56 -32 437t-14 499z " />
<glyph unicode="&#x22;" horiz-adv-x="679" d="M49 999.5q0 20.5 35.5 200.5t47.5 226t35.5 61.5t54.5 15.5t51 -21.5t20 -43.5t-20.5 -69t-57.5 -122t-51 -106t-26.5 -60t-19 -44t-14.5 -30q-16 -28 -35.5 -28t-19.5 20.5zM242 1006q0 39 37.5 120.5t56 135.5t31 92t28.5 74q33 73 89 73q34 0 49.5 -15.5t15.5 -32 t-5.5 -35t-17.5 -42.5t-23.5 -45t-31 -51t-31.5 -49t-33 -51t-34 -52t-30 -48.5t-26 -44t-19 -29.5q-17 -25 -34 -25q-22 1 -22 25z" />
<glyph unicode="#" horiz-adv-x="874" d="M49 526v70h201l43 154h-242v69h263l161 588h84l-163 -588h169l164 588h82l-164 -588h179v-69h-198l-42 -154h238v-70h-259l-176 -626h-82l177 626h-170l-172 -626h-84l174 626h-183zM334 596h168l43 154h-168z" />
<glyph unicode="$" horiz-adv-x="1085" d="M102 258q0 31 23 31q20 0 26.5 -15.5t11 -29t11.5 -29t17 -32.5t28.5 -34.5t42.5 -33.5q55 -36 132.5 -53t119.5 -17v518q-9 4 -37 17.5t-44 21.5t-46 24t-49 28t-46 31t-44.5 35.5t-37 39t-30.5 43.5q-26 50 -26 98t12 88.5t33 69.5t48 53t57.5 40t60.5 29t57 19 q48 12 94 18v164h64v-164q156 -18 179 -23q27 -7 33 -7l62 14q13 0 17.5 -12t8.5 -40.5t5 -35t2.5 -19t3.5 -24.5l6 -51v-16q-1 -18 -15 -19q-18 0 -31 15t-23 28t-23 30.5t-45 40.5t-63 34q-65 25 -117 28v-463q28 -14 79 -39t75 -37t63 -34t58 -38t44 -40.5t37 -48.5 q29 -62 28.5 -118.5t-13.5 -100.5t-35.5 -76.5t-51.5 -60t-61 -45.5t-64 -32t-61 -21q-64 -17 -100 -21v-328h-64v326q-129 0 -217.5 19t-120.5 32.5t-39 27t-12 47.5t-7 47l-6 39t-7 42t-3 20zM299 966q0 -33 12 -62t31 -52.5t42.5 -44.5t46.5 -36q46 -30 85 -50v440 q-161 -18 -205 -130q-12 -32 -12 -65zM578 47q123 8 206 119q42 55 42 103.5t-14 80.5t-36 57t-48 47t-53 38q-51 30 -97 48v-493z" />
<glyph unicode="%" horiz-adv-x="1599" d="M90 -70q0 12 18 33l1232 1313q-189 -94 -439 -94q-41 0 -147 12q39 -62 38.5 -147.5t-36.5 -164t-94 -133.5t-135 -89t-145.5 -34t-115 20t-75.5 53q-58 68 -58 153.5t28 151.5t73.5 115.5t102.5 86.5q115 76 228 76q48 0 92 -11q84 -22 214.5 -21.5t239.5 18.5t179 39 t128 39t75 18t17 -10q0 -16 -38 -58l-1284 -1378h-63q-35 0 -35 12zM221 812.5q0 -42.5 26.5 -72.5t79 -30t108.5 28t101.5 73t81.5 98q76 110 76 201q0 40 -28 65t-70 25t-93 -26t-100 -69t-90 -93t-66.5 -103.5t-25.5 -96zM782.5 230.5q-0.5 59.5 27.5 126.5t74 116 t102 87q114 75 228 75q98 0 161 -56q67 -59 67 -183q0 -84 -36 -162t-94 -134q-128 -122 -288 -122q-174 0 -226 150q-15 43 -15.5 102.5zM870 162q0 -40 27.5 -70t80 -30t108.5 28t101.5 73t81.5 98q77 112 77 202q0 40 -30 65t-68 25t-80 -18.5t-83 -49.5t-80 -71 t-68.5 -82.5t-48 -86t-18.5 -83.5z" />
<glyph unicode="&#x26;" horiz-adv-x="1740" d="M90 461q0 174 132 274q58 44 138 68q-40 33 -76 93q-64 108 -64.5 174t23 120t67.5 96q96 92 260 92q78 0 148.5 -31t113 -83.5t42.5 -98.5t-11.5 -79t-32.5 -61q-48 -63 -130 -63q-38 0 -76 15t-38 35q0 11 33.5 22.5t53.5 21.5q48 24 48 88.5t-51.5 110t-119.5 45.5 t-119.5 -43.5t-51.5 -107.5q1 -78 57 -154q62 -82 142 -158.5t108 -102.5t85 -79t110 -100.5t96 -83.5t65 -53.5t59 -45.5t39 -30l56 -43q123 177 123 379q0 200 -65 219q-44 13 -216 13l-4 79h547l2 -79q-24 0 -83 -1t-84 -5q-24 -4 -24 -20q0 -6 4.5 -16t9.5 -26 q14 -41 14 -134.5t-16 -158.5q-14 -65 -36 -117q-44 -106 -81 -160l-15 -24q8 -6 42 -29t44.5 -30t39 -23t46.5 -22q100 -32 200 0q17 6 27 6q21 0 21 -23q0 -63 -71 -110t-173 -47q-60 0 -124 34q-102 56 -151 90l-20 14q-63 -76 -211 -120q-163 -49 -356 -19 q-293 45 -426 245q-70 106 -70 247zM280 536q0 -76 23.5 -135t63 -105t92.5 -83.5t112 -62.5q124 -52 242 -52q165 0 255 62q6 4 7 4l-176 129q-84 64 -219.5 189.5t-265.5 263.5q-54 -14 -94 -74t-40 -136z" />
<glyph unicode="'" horiz-adv-x="458" d="M49.5 999.5q-0.5 26.5 30 110.5t41.5 124.5t18.5 71t17 63t18.5 55t22 41.5q26 38 63 38t52.5 -23t15.5 -48.5t-23.5 -74.5t-68 -125t-57.5 -100t-25 -47t-19 -37t-14.5 -28t-12 -22t-10.5 -14q-10 -11 -24 -11q-24 0 -24.5 26.5z" />
<glyph unicode="(" horiz-adv-x="641" d="M90 491q0 112 27 235.5t69 214.5t94 170t104 132q108 110 163 145l27 17l32 -39q-168 -134 -280 -394q-98 -228 -98 -495q0 -266 92 -503q41 -104 93.5 -182t79.5 -108q55 -64 93 -94l-37 -42q-82 62 -191 199q-268 339 -268 744z" />
<glyph unicode=")" horiz-adv-x="641" d="M35 1366l33 39q92 -54 201 -175q210 -232 265 -557q17 -99 17 -209t-25.5 -222.5t-65.5 -201t-89 -169.5t-99 -138q-104 -123 -155 -165l-25 -20l-34 42q112 86 208 264q148 270 148 623q0 260 -98 494q-44 107 -99 186t-84 111q-57 64 -98 98z" />
<glyph unicode="*" horiz-adv-x="931" d="M90 762q0 28 32 53t77 40t91 27q110 28 110 42t-32 23.5t-77 17.5t-90 20q-109 29 -109 101q0 56 60 77q12 4 28 4.5t57 -28t77 -62.5q96 -90 120 -90q8 0 8 23.5t-31.5 124.5t-31.5 130.5t27 57t53.5 27.5t41.5 -6t28 -18q30 -26 30 -89q0 -22 -29.5 -121.5t-29.5 -118 t11 -18.5t33 18.5t49 44.5q27 28 55 54q68 64 108.5 63.5t63 -19t22.5 -47.5t-17 -51.5t-44 -36.5t-59.5 -24.5t-65 -17.5t-59.5 -13q-60 -12 -60.5 -24.5t21 -22t53.5 -16.5t69 -19t69 -25t53.5 -37t21.5 -54.5t-17 -52t-46 -21.5t-62 19t-63.5 46.5t-58 55t-48 46.5 t-29 19t-8.5 -25t27.5 -115t27.5 -120t-25.5 -55t-58.5 -25t-60.5 24t-27.5 52.5t29.5 136t29.5 119.5t-6 12t-27 -19t-50 -46t-61 -54q-76 -65 -118 -65t-62 25t-20 53z" />
<glyph unicode="+" horiz-adv-x="1562" d="M164 422v118q452 0 538 -6l29 -2q-10 28 -10 568h121q0 -520 -10 -568q62 8 567 8v-118q-450 0 -538 6l-29 2q10 -62 10 -567h-121q-1 450 7 538l3 29q-58 -8 -567 -8z" />
<glyph unicode="," horiz-adv-x="458" d="M72 -270q0 16 26 31t45 30t35 32q37 41 37 111q0 46 -16.5 62.5t-27.5 24.5t-21 13q-23 12 -23 27t20.5 39t42.5 41t29 17t17 -2.5t28 -12t34 -25.5q38 -40 38 -112t-27.5 -139t-64 -101.5t-78.5 -49.5t-68 -14.5t-26 28.5z" />
<glyph unicode="-" horiz-adv-x="645" d="M70 494v122l506 150v-125z" />
<glyph unicode="." horiz-adv-x="458" d="M127 82q0 24 40 59t63.5 35t57.5 -40.5t34 -64t-39.5 -57.5t-61 -34t-58 39t-36.5 63z" />
<glyph unicode="/" horiz-adv-x="905" d="M35 -473l698 1919h97l-699 -1919h-96z" />
<glyph unicode="0" horiz-adv-x="1081" d="M110 381q0 79 19 144t57 121t89 98q111 92 272 92q176 0 299 -113q125 -114 125 -297q0 -181 -119 -311q-56 -61 -137 -97t-171 -36t-168 29.5t-137 82t-94 130.5t-35 157zM211 415q0 -68 25.5 -129.5t68.5 -109.5q97 -104 244 -104q126 0 223 91q100 95 100 241 q0 131 -92 233q-96 107 -244 107q-129 0 -225 -92q-100 -94 -100 -237z" />
<glyph unicode="1" horiz-adv-x="692" d="M76 0v66h78q82 0 94.5 6t16.5 15q5 11 5 42v533q0 38 -10 46q-22 17 -60 17h-120v63h213q60 0 72 24q4 9 7.5 20.5t4.5 15.5h45q-8 -214 -8 -408v-313q0 -40 18 -50.5t74 -10.5h110v-66h-540z" />
<glyph unicode="2" horiz-adv-x="989" d="M76 16q0 10 78.5 62t137 92t117.5 87t107 96q108 110 108 194.5t-58.5 138.5t-145.5 54q-96 0 -143 -39q-20 -16 -33.5 -31.5t-23.5 -27t-20 -11.5q-20 0 -20 22.5t13 48.5t41 50t65 42q82 42 173.5 42t142.5 -17t84 -43t57 -58q42 -58 42 -112q0 -183 -216 -340 q-80 -59 -168 -114.5t-88 -60.5t60 -5t148 11t146 26t103.5 30.5t74 26t39.5 10.5q17 0 17 -18q0 -12 -18.5 -81.5t-25 -76t-9.5 -8.5q-9 -6 -85 -6h-672q-28 0 -28 16z" />
<glyph unicode="3" horiz-adv-x="882" d="M12.5 -450.5q-0.5 26.5 28.5 26.5q7 0 35 -8q86 -23 159 -22.5t125 13.5t101 40t87 65q84 82 83 209q0 86 -23.5 128.5t-43.5 63.5t-39 34t-42 22q-48 20 -83 22.5t-45.5 3.5t-21.5 3q-20 4 -19.5 21t11.5 26t31 16t42 15q98 38 134 155q19 60 19 94t-6.5 62.5t-22 58.5 t-37.5 54q-50 54 -115.5 54t-105.5 -9t-64 -23t-41 -27q-43 -33 -59 -33q-24 0 -24 31q0 32 58 89q100 98 276 98t253 -132q38 -64 37.5 -131t-11.5 -111t-29.5 -76t-40.5 -59t-44 -45q-41 -34 -81 -52q142 -18 232 -114q82 -86 81 -224q0 -176 -140 -294 q-159 -132 -399 -132q-166 0 -229 43q-26 18 -26.5 44.5z" />
<glyph unicode="4" horiz-adv-x="1228" d="M76 14q0 6 168 174l624 621q22 23 29 23q17 0 17 -50v-655h239l-43 -127h-196v-479l-146 -61v540h-664q-28 0 -28 14zM289 127h479v477z" />
<glyph unicode="5" horiz-adv-x="950" d="M34 -418q2 22 22 22q14 0 27 -8q13 -10 17 -12q54 -36 234 -36q73 0 140.5 33t114.5 87q103 116 103 262q0 302 -293 376q-77 20 -161 20l-88 -6q0 226 -26 439q-2 12 -1 13q1 24 31 24l300 -8q108 0 216 17q28 3 34 79l50 -6l-25 -174q-4 -32 -13.5 -45.5t-43.5 -13.5 t-208 25q-176 24 -182 24q-38 0 -55.5 -53t-17.5 -126.5t2 -85.5t4.5 -19.5t10.5 -9.5q10 -4 34 -4l146 12q351 0 431 -276q23 -78 23 -145t-6.5 -107t-23 -88t-42.5 -92.5t-67.5 -87t-93.5 -73.5q-115 -69 -287 -69q-178 0 -266 62q-40 29 -40 50z" />
<glyph unicode="6" horiz-adv-x="1044" d="M110 568q0 114 23 213t63 182t97 153.5t123 119.5q140 104 294 104q66 0 122.5 -24t56.5 -44q0 -12 -9.5 -18.5t-16.5 -6.5t-41 7.5t-64 7.5q-103 0 -185.5 -48t-133.5 -105t-79 -115t-48 -121t-27 -110t-12.5 -85t-8.5 -45q81 142 233 177q38 9 85.5 9t98.5 -13.5 t87.5 -36.5t65.5 -54.5t47 -65t30 -71.5q21 -68 21 -156t-30 -177.5t-82 -147.5q-108 -119 -269 -119q-105 0 -189 47t-139 129t-84 191t-29 223zM278 470q0 -74 28 -155.5t71 -138t97 -90.5q56 -35 108 -35q83 0 136.5 79.5t53.5 235.5t-77 252.5t-197 96.5 q-62 0 -113 -32.5t-79 -85.5t-28 -127z" />
<glyph unicode="7" horiz-adv-x="909" d="M56 645q0 47 10 96.5t13 52t11 3.5q10 1 26 1h642q23 0 28.5 -3t5.5 -21q0 -122 -60.5 -406t-136 -543t-116.5 -335q-14 -22 -24 -22t-57.5 10.5t-61.5 15.5q-24 6 -24 21t11 37t35.5 64t55.5 101q78 152 150 367t104 369q32 155 32 203q0 28 -51 28t-176 -12t-194 -23 t-113 -23t-63 -20t-25 -8q-22 0 -22 47z" />
<glyph unicode="8" horiz-adv-x="1048" d="M110 308q0 66 21 116t50 86t67.5 68.5t68 50.5t58.5 33.5t31 17.5q-108 63 -175 153.5t-67 188.5t48 173q100 153 328 153q87 0 167.5 -39t130 -106t49.5 -129t-14 -106t-36.5 -77t-49.5 -62.5t-54 -49.5q-53 -38 -100 -62q4 -2 26.5 -14.5t41.5 -23.5t49 -31t54 -39.5 t50 -48t44 -56.5q40 -67 40 -142.5t-31 -145.5t-84 -122q-117 -114 -299 -114q-172 0 -291 90q-57 43 -90 107.5t-33 130.5zM234 324q0 -44 18 -88t49 -76t71 -56q80 -47 161.5 -46.5t142.5 34.5t96 93t35 111t-8.5 81t-25.5 53.5t-41.5 47t-56.5 44.5q-44 30 -119 74 q-74 44 -95 56q-74 -44 -119 -94.5t-63.5 -81t-31.5 -69.5t-13 -83zM295 1060.5q0 -33.5 14.5 -70t37.5 -66t51 -57t56 -47.5q63 -46 103 -66q109 48 171 140q42 62 42 129t-37.5 123t-96.5 89t-116 33t-96.5 -12.5t-63 -32t-39 -47t-21 -55t-5.5 -61z" />
<glyph unicode="9" horiz-adv-x="1054" d="M110.5 425q-0.5 83 29.5 159t82 127q110 108 274 108q206 0 325 -147q123 -150 123 -428q0 -246 -115 -447q-119 -206 -301 -286q-96 -41 -200 -41q-132 0 -167 36q-5 6 -5 10q0 36 53 36l94 -11q212 0 352 211q74 110 104 260q13 66 13 125q-2 -3 -5.5 -8.5t-16.5 -21 t-28.5 -30t-40.5 -32t-53 -30.5q-64 -30 -137 -29.5t-127.5 16.5t-92 43t-67 64t-47 76t-27.5 82q-19 75 -19.5 158zM262 487.5q0 -40.5 3 -67.5t12 -63.5t23 -71.5t37.5 -69t53.5 -60q68 -58 172 -58q119 0 175 96q34 56 34 145t-40 188t-110 163t-149 64q-50 0 -91.5 -32 t-65.5 -64t-39 -81t-15 -89.5z" />
<glyph unicode=":" horiz-adv-x="540" d="M172 80q0 22 39 58t63 36t59 -40t35 -63t-40 -56t-64 -33t-58 38t-34 60zM172 719q0 25 38 60.5t61 35.5t60 -36t37 -58.5t-36 -61.5t-58.5 -39t-62 37t-39.5 62z" />
<glyph unicode=";" horiz-adv-x="540" d="M116 -266q0 16 26 30t44 29t34 32q36 39 36 109q0 46 -16 62.5t-28 24.5t-21 13q-23 12 -23 27t18 39t39 42t28 18t19 -4.5t30.5 -16t34.5 -29.5q40 -42 40 -109t-27.5 -134t-63.5 -101.5t-75 -49.5t-63 -15q-32 0 -32 33zM172 719q0 25 38 60.5t61 35.5t60 -36t37 -58.5 t-36 -61.5t-58.5 -39t-62 37t-39.5 62z" />
<glyph unicode="&#x3c;" horiz-adv-x="1558" d="M121 477v45l1317 631v-137l-1104 -516l1104 -516v-138z" />
<glyph unicode="=" horiz-adv-x="1605" d="M184 250v120h1238v-120h-1238zM184 592v120h1238v-120h-1238z" />
<glyph unicode="&#x3e;" horiz-adv-x="1558" d="M121 -16l1103 516l-1103 516v137l1317 -631v-45l-1317 -631v138z" />
<glyph unicode="?" horiz-adv-x="813" d="M164 1237q0 28 41 63q76 66 141 66q44 0 105 -41.5t99.5 -79.5t69.5 -80q70 -96 70 -194q0 -94 -57 -160q-60 -71 -114.5 -117t-84.5 -74t-50 -50q-44 -50 -44 -90.5t10 -66t24 -42.5t28 -30q34 -33 34 -46q0 -29 -30 -29q-38 0 -75.5 33.5t-59.5 63.5q-50 67 -50 163 q0 90 72 169q41 45 113 105t104 93q72 73 72 153q0 36 -37.5 75.5t-100 66t-126.5 26.5l-128 -2q-26 0 -26 25zM291 82q0 24 39 58t62.5 34t59.5 -36t36 -58t-37.5 -60t-61.5 -38t-61 38t-37 62z" />
<glyph unicode="@" horiz-adv-x="1548" d="M131 374.5q0 103.5 17.5 176t50.5 138.5t85 122t116 97q138 88 331 88q83 0 149 -41t102 -109t36 -150v-292q0 -94 34 -133q32 -36 75 -47.5t43 -22.5t-28 -28q-107 -67 -114 -69q-48 34 -68.5 59t-40 50.5t-28.5 36.5q-42 -56 -108 -93.5t-115.5 -37.5t-81.5 9 q-34 8 -62 26q-64 39 -63.5 109.5t32.5 128.5q33 58 87 100q120 94 292 94v162q0 70 -57 128q-46 46 -124 46t-145.5 -28.5t-117.5 -77t-86 -113.5q-72 -127 -72 -287q0 -166 82 -296q141 -226 453 -226t462 233q81 123 81 311q0 122 -26 190t-47 106t-44 66t-46 51.5 t-44 41t-37 29.5q-35 28 -35 38q1 22 21 23q32 0 81.5 -34t76.5 -59.5t52.5 -56.5t48.5 -73t41 -89q38 -103 38 -213t-19.5 -190.5t-54 -143t-82.5 -114.5t-105 -88.5t-123 -61.5q-127 -48 -245.5 -48t-199.5 17t-145 48t-117 74t-91 95t-64 110q-51 115 -51 218.5zM606 328 q0 -40 29 -70t78 -30t75.5 7.5t42 19t25.5 27.5q16 26 16 60v188q-124 0 -197 -64q-69 -61 -69 -138z" />
<glyph unicode="A" horiz-adv-x="1486" d="M56 80h24q55 0 73.5 19t42.5 73t62.5 139.5t97 216t84.5 187.5t45 98.5t26 58t15 36.5l209 507h43q124 -324 313.5 -782.5t209.5 -496t41.5 -47t58.5 -9.5h31l-2 -80h-468l2 80h62q51 0 70.5 4t19.5 20q0 12 -9 35t-11 29l-152 372h-475l-162 -360q-20 -50 -20.5 -69.5 t15.5 -25t68 -5.5h84v-80h-396zM508 631h402l-195 485z" />
<glyph unicode="B" horiz-adv-x="1142" d="M56 1284l4 82h452q354 0 452 -202q30 -62 30 -124t-23 -110.5t-61 -84.5q-76 -73 -179 -103q188 -42 268 -200q43 -88 43 -172q0 -166 -92 -249q-122 -109 -450 -119q-56 -2 -138 -2h-290v80h61q52 0 69 10q17 12 17 50v1070q0 58 -38 68q-23 6 -69 6h-56zM381 704 l4 -548q0 -42 26 -54t96.5 -12t119.5 10t83 25.5t59 39t40 47.5t24 52q15 48 15 105t-17 106t-45 83.5t-67 61t-81 42.5q-40 16 -88 26q-80 16 -169 16zM385 764h201q101 0 161 82q56 76 56 160q-1 142 -145 224q-82 46 -210 46q-63 0 -63 -47v-465z" />
<glyph unicode="C" horiz-adv-x="1509" d="M110 643q0 292 189 492q105 113 263 177q142 58 267.5 58t208 -10t120.5 -22t67 -22t39 -10t16 2t9 10q5 12 5 52v12h78q6 -200 24 -391l-73 -2q-10 80 -10.5 94.5t-3.5 31l-4 22t-6.5 15.5t-9 12t-13.5 9t-18 10q-17 6 -62.5 29.5t-142 42.5t-196.5 19t-190.5 -29.5 t-159.5 -83t-119 -124.5q-104 -145 -104 -335q0 -162 80 -311q78 -146 219 -239q144 -94 322 -94q171 0 336 110q91 60 92 100l7 172h71l-12 -298q-182 -127 -420 -165q-64 -10 -125 -10q-354 0 -550 183q-194 181 -194 493z" />
<glyph unicode="D" horiz-adv-x="1523" d="M56 1366h552q301 0 427 -40q170 -54 273 -192q126 -168 126 -399q0 -311 -207 -521q-211 -214 -607 -214h-528l-2 80h56q75 0 86 9t15 21q5 15 5 60v1040q0 54 -10 60.5t-23 9.5q-15 4 -71 4h-86zM418 174q0 -53 7 -63t16.5 -16.5t20.5 -8t31 -3.5q25 -3 117 -3t184 18.5 t159 50.5t119 77.5t85 96.5t54 111q39 108 39 204v8q0 92 -12 150q-12 62 -38 121t-64 111.5t-94 97.5q-54 44 -122 76q-144 68 -342 68h-76q-36 0 -52 -6q-32 -12 -32 -90v-1000z" />
<glyph unicode="E" horiz-adv-x="1261" d="M56 1366h1054q2 -176 10 -322l-80 -4q-8 202 -30 227q-7 8 -23.5 9.5t-95.5 1.5h-349q-84 0 -95.5 -9t-16.5 -22q-6 -15 -6 -65v-285q0 -60 6 -66.5t15 -10.5q11 -5 47 -5h309q54 0 62 10.5t11 24.5q4 18 4 68v78l76 -2v-490h-76v106q0 86 -8 96.5t-11.5 13t-14 4 t-16.5 1.5h-330q-52 0 -62 -10q-12 -13 -12 -53v-484q0 -53 13 -68.5t53 -15.5q410 4 488 10t89 17.5t16.5 28t32.5 178.5l70 -10l-52 -318h-1038v80h54q76 0 87 8t16 18q5 14 5 52v1038q0 61 -22 76q-20 12 -122 12h-56z" />
<glyph unicode="F" horiz-adv-x="1216" d="M56 1366h1050q4 -192 10 -322l-80 -4q-8 202 -30 227q-7 8 -23.5 9.5t-95.5 1.5h-349q-84 0 -95.5 -9t-16.5 -22q-6 -15 -6 -65v-285q0 -60 6 -66.5t15 -10.5q11 -5 47 -5h308q56 0 63 10t11 22q4 17 4 67v80h76v-490h-76v136q0 13 -1 25.5t-1.5 19.5t-3.5 14.5t-4.5 11 t-7.5 7t-9 4.5t-12 2t-15 1h-326q-52 0 -62 -10q-12 -13 -12 -53v-484q0 -56 12 -77t50 -21h136v-80h-526v80h60q71 0 81.5 8t14.5 18q6 14 6 52v1038q0 65 -14 70t-23 10t-36 5.5t-51 1.5t-72 1z" />
<glyph unicode="G" horiz-adv-x="1626" d="M110 614.5q0 77.5 17 158t51.5 157t83 145.5t114.5 126t142 99q163 88 371 88q114 0 208 -24q93 -24 209 -70v102h82l15 -446l-80 -2l-15 213q-106 82 -283 115q-74 14 -161.5 14t-171 -22t-146 -62.5t-110.5 -95.5q-50 -54 -80 -119q-62 -133 -61 -283q0 -162 69 -312 q69 -148 203 -244q139 -98 328 -99q190 1 326 91q15 10 29 22v366h-244l-2 80h565l2 -80h-156v-420q-30 -12 -79 -34t-81.5 -37t-82.5 -33t-94 -29q-105 -26 -217.5 -26t-208 18.5t-170 52.5t-136.5 81.5t-105 104t-73 122.5t-44 135.5t-14 147z" />
<glyph unicode="H" horiz-adv-x="1474" d="M56 1284v82h509v-82h-53q-77 0 -89.5 -10t-18.5 -20q-8 -17 -8 -60v-389h665v405q0 54 -9.5 60t-23.5 10q-16 4 -74 4h-86l-2 82h520v-82h-57q-68 0 -79.5 -9.5t-15.5 -19.5q-7 -16 -7 -57v-1034q0 -59 18.5 -71.5t104.5 -12.5h70l-3 -80h-509l-3 80h59q68 0 78 10 q10 8 14 20q5 16 5 60v536h-665v-536q0 -62 23 -76q19 -14 123 -14h60l-4 -80h-524l-2 80h72t41.5 2t19 3t12 7t8 10t3.5 17t2 22v1075q0 48 -23 58t-99 10h-52z" />
<glyph unicode="I" horiz-adv-x="659" d="M56 1284l2 82h514v-82h-36q-71 0 -82.5 -4t-20 -9t-11 -11t-6.5 -16q-4 -16 -4 -54v-1016q0 -66 11 -75t25 -13q19 -6 74 -6h80l2 -80h-524l-2 80h53q80 0 92.5 9t16.5 21q6 16 6 60v1040q0 54 -10 60.5t-23 9.5q-15 4 -71 4h-86z" />
<glyph unicode="J" horiz-adv-x="624" d="M-156 -433.5q0 31.5 22.5 61.5t52.5 49.5t49.5 19.5t34.5 -11.5t27 -28t24 -33.5q27 -40 58 -40q134 0 134 367v1259q0 50 -10 58.5t-21 11.5q-15 4 -61 4h-76v82h492l-5 -82h-65q-60 0 -68 -9t-13 -20q-7 -16 -7 -65v-1194q0 -108 -12 -172t-41 -112t-95 -113t-127 -96 t-127.5 -31t-116 31.5t-49.5 63z" />
<glyph unicode="K" horiz-adv-x="1490" d="M56 1284v82h512v-82h-66q-61 0 -69.5 -9t-12.5 -20q-8 -17 -8 -65v-471l598 485q52 42 52 61q-2 19 -96 19h-79l-5 82h492v-82h-53q-59 0 -89 -15q-39 -20 -159 -118l-463 -371l619 -645q32 -34 49.5 -44.5t38.5 -10.5h119l-4 -80h-322l-622 684l-76 -62v-448 q0 -50 7 -62.5t17.5 -18t20 -7.5t28.5 -4q27 -2 89 -2h44v-80h-524l-2 80h56q74 0 82.5 10.5t10.5 15t3.5 16.5t1.5 20v1068q0 54 -10 60.5t-23 9.5q-15 4 -71 4h-86z" />
<glyph unicode="L" horiz-adv-x="1196" d="M56 1284l2 82h524v-82h-92q-57 0 -66.5 -8t-13.5 -16q-8 -14 -8 -52v-1034q0 -64 25 -75q14 -5 42 -5q518 2 545 30q16 16 23 52t12 60t9 49t11 61l71 -4l-67 -342h-989l-2 80h58q70 0 79 9t11 13t4 14q2 14 2 42v1058q0 44 -22 56t-87 12h-71z" />
<glyph unicode="M" horiz-adv-x="1683" d="M76 0v80h20q86 0 98.5 9t17.5 23q6 16 7 64l19 1000l2 53q0 34 -11 44.5t-47 10.5h-104l-2 82h309l467 -1094l458 1094h328v-82h-69q-62 0 -84.5 -12t-22.5 -54v-1044q0 -54 5 -63t12 -16t14.5 -8.5t22.5 -3.5q18 -3 71 -3h41l2 -80h-498l-2 80h42q88 0 101 9t17 21 q6 16 6 60v940l-315 -744q-68 -160 -106.5 -261t-44.5 -110t-16 -9q-18 0 -81 145l-411 953l-8 -934q0 -36 12 -50t55 -17t137 -3v-80h-442z" />
<glyph unicode="N" horiz-adv-x="1523" d="M56 1366h316l840 -1084v928q0 48 -22 64q-16 10 -90 10h-72l4 82h436v-82h-46q-64 0 -83 -12q-31 -18 -31 -78v-1180q0 -30 -2.5 -39.5t-15.5 -9.5h-28q-17 0 -20.5 4.5t-6 7t-8 11t-11.5 14.5l-892 1147l10 -975q0 -66 26 -81q26 -13 126 -13h34v-80h-430v80h62 q68 0 76 23q10 22 10 67v1090l-21 24h-159z" />
<glyph unicode="O" d="M110 690q0 97 28 200.5t78 182t117 140.5t147 101q162 80 341 80q237 0 425 -130q199 -138 257 -393q21 -90 21 -178v-6q0 -85 -14 -157q-14 -74 -44 -145t-73 -134t-103 -115t-132 -90q-150 -79 -348 -79h-5h-3q-279 0 -466 165q-226 198 -226 558zM295 748 q0 -82 11.5 -153t36 -138t59 -127t81.5 -110q47 -52 104 -88q118 -76 273 -76q124 0 233 62q108 62 175 192q70 132 70 321q0 306 -177 502q-101 114 -245 157q-68 20 -124 20t-99.5 -8t-91.5 -27.5t-91.5 -49t-83 -75.5t-68.5 -103.5t-46 -137t-17 -161.5z" />
<glyph unicode="P" horiz-adv-x="1169" d="M56 0v80h63q50 0 58.5 6t11.5 15q3 11 3 39v1070q0 52 -12 62q-16 12 -66 12h-52l2 82h422q210 0 268 -16q97 -28 163.5 -82t114.5 -147t48 -209q0 -182 -153 -294q-109 -80 -280 -80q-129 0 -271 39q-16 5 -18 5v-442q0 -43 18 -50q26 -10 122 -10h102v-80h-544z M358 643q52 -39 204 -39t238 80q87 80 87 232q0 208 -193 308q-116 60 -274 60q-36 0 -46 -12q-16 -19 -16 -82v-547z" />
<glyph unicode="Q" d="M110 686q0 102 28 205t78 181.5t117 140.5t147 101q162 80 341 80q237 0 425 -130q199 -138 257 -393q20 -90 21 -211q0 -120 -48 -248q-96 -254 -321 -367q-35 -17 -105 -39l-24 -8q96 -40 253 -164q164 -130 231.5 -164t102 -34t54.5 5.5t32 10.5q11 6 19 6 q18 0 18 -22q0 -56 -76 -97q-50 -26 -119 -27h-6q-65 0 -109 11q-47 11 -89.5 32t-79.5 44t-77 55t-70 59t-68 61t-84 71t-85 66t-70 42t-47.5 15.5t-56 7t-85.5 13.5t-97 30.5t-101.5 54.5t-95.5 75t-83.5 97.5t-66.5 118.5t-44 141t-16 180zM295 748q0 -82 11.5 -153 t36 -138t59 -127t81.5 -110q47 -52 104 -88q118 -76 273 -76q124 0 233 62q108 62 175 192q70 132 70 321q0 306 -177 502q-101 114 -245 157q-68 20 -124 20t-99.5 -8t-91.5 -27.5t-91.5 -49t-83 -75.5t-68.5 -103.5t-46 -137t-17 -161.5z" />
<glyph unicode="R" horiz-adv-x="1421" d="M47 1284l2 82h471q163 0 254.5 -21t162.5 -78.5t109 -133t38 -133.5t-9.5 -96t-30.5 -76q-22 -36 -56 -68q-74 -70 -198 -102l394 -523q28 -35 46 -45t42 -10h88l4 -80h-297l-439 631l-48 -3q-126 0 -187 13v-501q0 -42 19 -50q24 -10 122 -10h105l-4 -80h-545v80h47 q66 0 74.5 5t11.5 14q5 9 5 41v1070q0 57 -47 68q-27 6 -77 6h-57zM393 708q23 -20 131 -20q186 0 271 64t85 198q0 148 -108 240q-112 94 -318 94q-36 0 -46 -12q-15 -18 -15 -75v-7v-482z" />
<glyph unicode="S" horiz-adv-x="1058" d="M51 348l72 8l27 -126q14 -67 22 -77t20 -17.5t22 -11.5t56 -20q104 -36 203.5 -36t161 29t99.5 86t38 113.5t-15 91.5t-38 62.5t-59 56.5q-56 44 -150 95l-84 47q-125 70 -161 104.5t-58.5 62.5t-36.5 58q-30 66 -30 144t35 147t91 115q124 102 281 102q78 0 139.5 -20 t70 -20t16 13t9.5 39l70 5l30 -375l-73 -2l-19 182q-64 50 -184 73q-46 9 -102 9t-110 -27.5t-87 -78t-33 -98t9 -77t27.5 -54.5t40 -47t53.5 -45q48 -35 126 -79l113 -61q120 -67 162 -105t64.5 -65t37.5 -54q31 -60 31 -125t-19 -120.5t-58.5 -104.5t-94.5 -85 q-118 -78 -293 -78q-99 0 -161 18t-76 18q-38 0 -38 -42l2 -27l-69 -7q-16 92 -80 406z" />
<glyph unicode="T" horiz-adv-x="1290" d="M22 1036q18 174 31 330h1182l-25 -328l-74 2q12 147 12.5 178.5t-21 44.5t-83.5 13h-209.5t-87 -2.5t-19.5 -4t-12 -8.5t-8 -11t-4 -18t-2 -23v-1035q0 -64 21 -80q18 -14 98 -14h82l2 -80l-541 2v78h58t40 1t23.5 2t17 3.5t13.5 5t9 8t6 11t3 14.5q2 12 2 41v995 q0 78 -9.5 91.5t-21.5 17.5q-17 6 -59 6h-214q-67 0 -83.5 -11t-22.5 -21t-10 -22q-4 -14 -7 -32q-3 -24 -7 -78t-6 -78z" />
<glyph unicode="U" horiz-adv-x="1476" d="M56 1284v82h491l2 -82h-78q-61 0 -86 -14t-25 -62v-758q0 -142 90 -244q108 -124 338 -124q257 0 345 109q32 38 47.5 71t24.5 89q11 76 11 196v663q0 48 -22 64q-16 10 -90 10h-72l4 82h386v-82h-30q-34 0 -49 -6q-30 -10 -30 -84v-727q0 -341 -236 -451 q-113 -53 -283 -53h-6q-442 0 -556 274q-38 89 -38 203v770q0 51 -14 61q-18 13 -70 13h-54z" />
<glyph unicode="V" horiz-adv-x="1560" d="M56 1284v82h514l-2 -82h-109q-28 0 -38.5 -5t-10.5 -26t28 -92l381 -946l431 989q10 28 10 40.5t-7.5 21t-23.5 12.5q-24 6 -70 6h-65l-4 82h416l-5 -82h-59q-50 0 -73 -32q-22 -32 -53.5 -104t-36.5 -83q-7 -17 -27 -63l-460 -1032h-34l-476 1154q-40 95 -56 121.5 t-38.5 32.5t-60.5 6h-71z" />
<glyph unicode="W" horiz-adv-x="2129" d="M76 1284v82h454l-2 -82h-44q-92 0 -113 -21q-8 -9 -8.5 -20t3.5 -27l355 -974l338 864q-4 10 -10 30t-11 33.5t-12.5 33t-15.5 32t-18 24.5q-21 25 -50 25h-100v82h487v-82h-109q-33 0 -42.5 -6t-9.5 -22q0 -26 36 -136l299 -872l365 956q8 29 8 39.5t-7.5 20.5t-23.5 14 q-23 6 -69 6h-54v82h350l2 -82h-24q-48 0 -64.5 -20t-34.5 -68q-17 -48 -19 -53l-454 -1176h-34l-348 1024l-398 -1021h-32l-434 1185q-31 86 -51.5 104t-34.5 21q-14 4 -36 4h-34z" />
<glyph unicode="X" horiz-adv-x="1556" d="M56 0v80h44q16 0 35 2.5t27 3t22.5 8.5t19.5 12t20.5 18t22.5 23.5t28 33t37 40.5l390 443l-403 510q-6 8 -19.5 25t-20.5 26t-20 21.5t-17 16t-17 10t-19 7t-25 2.5t-31 2h-40v82h520v-82h-55q-52 0 -69 -3t-17 -16t11.5 -33t61.5 -89l267 -357l275 310q104 118 111 134 t7 28q0 17 -21 21.5t-75 4.5h-58l2 82h439v-82h-37q-69 0 -80.5 -8t-22.5 -15t-16.5 -14t-17 -19t-18 -19t-8 -9t-4.5 -5l-5 -5l-420 -463l262 -334q176 -226 210 -256t45 -36.5t27 -12.5q20 -8 60 -8h35l2 -80h-528v80h49q54 0 78 5t24 21q0 10 -12 28t-72 96l-288 370 l-369 -426q-47 -52 -47 -69t17 -21t65 -4h74v-80h-436z" />
<glyph unicode="Y" horiz-adv-x="1349" d="M76 1284l2 82h458v-82h-40q-60 0 -83.5 -5t-23.5 -21q0 -10 37 -72l293 -461l358 508q13 21 13 25q0 17 -31 21.5t-103 4.5h-32l-2 82h372v-82h-10q-54 0 -66 -8t-23 -18q-18 -16 -48 -60l-399 -578v-446q0 -54 4.5 -63t11 -16t14.5 -8.5t22 -3.5q16 -3 68 -3h92l-2 -80 h-575l2 80h82q76 0 89 9t16 15t6 16q4 14 4 50v467l-336 522q-50 78 -65.5 97t-35.5 23.5t-69 4.5z" />
<glyph unicode="Z" horiz-adv-x="1359" d="M56 41q0 18 42 63.5t54 59.5l919 1040h-835q-40 0 -49 -18t-14 -65t-5 -52t-4 -30t-4 -39l-82 4q26 218 30 362h1116q34 0 49 -4t15 -14.5t-7 -24t-17 -28t-19.5 -26.5t-18.5 -23q-10 -10 -10 -11l-932 -1065h812q84 0 92 11q17 24 33 140l6 39l77 -2l-40 -358h-1164 q-44 0 -44 41z" />
<glyph unicode="[" horiz-adv-x="667" d="M180 -473v1919h453v-62h-326v-1798h326v-59h-453z" />
<glyph unicode="\" horiz-adv-x="905" d="M76 1446h96l698 -1919h-96z" />
<glyph unicode="]" horiz-adv-x="667" d="M35 -414h325v1798h-325v62h453v-1919h-453v59z" />
<glyph unicode="^" horiz-adv-x="831" d="M82 678l322 655h24l322 -655h-130l-204 434l-205 -434h-129z" />
<glyph unicode="_" horiz-adv-x="462" d="M41 -121h381v-88h-381v88z" />
<glyph unicode="`" horiz-adv-x="798" d="M194 1290h143l107 -332h-74z" />
<glyph unicode="a" horiz-adv-x="778" d="M56 135q0 81 54 153t149 115t208 43v124q0 88 -35 117q-33 28 -87.5 28t-86.5 -6.5t-49 -16.5q-35 -20 -45 -40q2 -14 8 -34q12 -43 12 -61t-24 -33.5t-41 -15.5q-47 0 -47 74q0 48 48 109q92 120 310 120q124 0 166 -90q14 -32 14 -74v-383q0 -93 35 -132q33 -36 99 -54 q18 -5 18 -17t-26 -28q-110 -66 -116 -68q-46 33 -66 57q-26 30 -70 86q-41 -56 -108 -93t-116.5 -37t-81.5 9t-60 27q-62 40 -62 121zM198 187q0 -40 30 -69.5t79 -29.5t76 7.5t42 19t25 27.5q16 26 17 58v191h-4q-122 0 -195 -65q-70 -62 -70 -139z" />
<glyph unicode="b" horiz-adv-x="1034" d="M24 1424q70 12 296 56v-792q4 2 21 17t33 27t44 29t54 28q66 28 147.5 28t155 -32t117.5 -86q91 -110 91 -268q0 -216 -155 -354q-107 -95 -267 -95q-95 0 -153 21q-109 40 -123 40t-45.5 -23.5t-47.5 -23.5q-22 0 -22 47l6 275v1003q0 61 -28 61q-16 0 -118 -22z M320 200q0 -102 142 -136q36 -9 67 -9q1 1 3 1q32 0 58 3t56 12t56.5 23t51.5 38q24 24 42 54q40 68 40 154v7q0 81 -13 133q-13 54 -33 89.5t-48 62t-54 40.5t-54 22q-42 12 -79 12q-145 0 -235 -75v-431z" />
<glyph unicode="c" horiz-adv-x="825" d="M49 361.5q0 78.5 15 142.5t46.5 122t75.5 101q96 94 240 94q186 0 291 -101q22 -22 22.5 -35.5t-16.5 -26t-40 -19.5q-48 -14 -67.5 -14.5t-40.5 11.5t-42.5 29t-43.5 34q-53 41 -99 41h-2q-44 0 -79 -23t-56 -57t-35 -78q-24 -76 -24 -154t19.5 -135.5t50 -93 t70.5 -59.5q72 -44 148 -44h9q70 0 118 8q51 8 76 17t45 17t28 8q16 0 16 -18t-30 -43.5t-76 -50.5q-113 -60 -234 -60q-288 0 -362 236q-23 73 -23 151.5z" />
<glyph unicode="d" horiz-adv-x="1048" d="M49 379q0 90 35.5 170.5t91.5 137.5q123 122 271 122t268 -90v610q0 57 -29 57q-18 0 -135 -26l-4 64q101 18 311 73v-1353q0 -53 4.5 -70.5t18 -17.5t29.5 4.5t46 14t58 17.5v-55q-41 -12 -134 -41t-161 -49l2 149q0 26 -2 33q-125 -153 -305 -153q-150 0 -257 110 q-108 112 -108 293zM198 447q0 -67 23 -131.5t63 -114.5q88 -109 236 -109q68 0 106 20q63 34 89 62v440q-59 80 -173 117q-44 15 -94 15h-3q-48 0 -93 -22q-46 -22 -80 -61t-54 -94t-20 -122z" />
<glyph unicode="e" horiz-adv-x="845" d="M49 375q0 198 105 321q104 121 258 121q174 0 284 -139q56 -70 56 -123q0 -14 -12 -22.5t-21 -8.5l-514 -61l-2 -29q0 -228 183 -300q55 -22 110 -22t96.5 10t69.5 24.5t51 28.5q56 34 65 34q18 0 18 -18.5t-17 -43t-51 -54t-77 -56.5q-103 -63 -227 -63q-168 0 -269 108 q-106 116 -106 293zM209 534l352 46q-13 46 -42 83t-45 51q-38 34 -92 34h-1q-55 0 -105 -58q-52 -58 -67 -156z" />
<glyph unicode="f" horiz-adv-x="583" d="M35 704l25 99h124v221q0 98 9 136t18.5 68t25 57t35.5 54q40 55 111.5 99.5t155 44.5t128.5 -20t45 -50.5t-39 -83.5t-67 -53q-15 0 -30.5 31t-27.5 49q-26 44 -60 44h-1q-35 -1 -59.5 -16.5t-40 -38.5t-27.5 -56t-18 -63t-10 -64q-4 -48 -4 -89v-270h229l-23 -99h-206 v-577q0 -34 5 -40.5t12 -10.5t15 -6q9 0 24 -2q20 -2 72 -2h30l-2 -66h-426l-2 66h42q56 0 71 9t15 46v583h-149z" />
<glyph unicode="g" horiz-adv-x="913" d="M-16 -314q0 112 112 194q41 30 91 51q49 20 81 28q-145 18 -187 88q-12 18 -11.5 39.5t10.5 41.5t27 34t37.5 26t40.5 20q42 16 75 24q-57 14 -116 76q-76 80 -76 202q0 126 98 217.5t225 91.5q88 0 126.5 -21t58.5 -33q50 -30 94 -30t62 3.5t28.5 7.5t19 12.5t11.5 14.5 t8 16.5t8 15.5h43v-51q0 -70 -6 -81t-11 -17t-15 -8q-20 -5 -50 -5h-33q-55 0 -55 -5.5t7 -16.5t17 -25q24 -35 24 -94q0 -61 -26 -114q-24 -52 -68 -91q-94 -86 -243 -86q-81 0 -128.5 -20t-47.5 -54q0 -31 28 -40q8 -2 13.5 -4.5t16.5 -3.5t17 -2q12 -1 32 -1h34l140 2 q372 0 372 -230q0 -120 -99 -222q-169 -174 -451 -174q-182 0 -282 97q-52 51 -52 127zM142 -302q0 -55 59 -98.5t178 -43.5q165 0 271 88q75 64 75 160q0 151 -253 151h-3q-146 0 -239 -80q-88 -75 -88 -177zM238 546q0 -82 15 -130.5t39 -78.5q50 -63 116 -63q58 0 100 53 q45 56 45 139.5t-14.5 133t-38.5 80.5q-50 64 -113 64t-106 -58t-43 -140z" />
<glyph unicode="h" horiz-adv-x="950" d="M37 66h23q70 0 78 8q16 14 16 38v1217q0 36 -8 48.5t-22 12.5t-87 -12v72q56 6 260 37v-829q84 70 110.5 85.5t50.5 28.5q26 13 46 20q52 17 89 17t63 -6.5t45 -16.5t34 -27t24.5 -33.5t16.5 -42.5t10 -46q4 -19 6 -51q2 -40 2 -107v-354q0 -43 8 -48t20 -8q14 -3 60 -3 h34v-66h-394l-2 66h33q62 0 80.5 9.5t18.5 47.5v415q0 98 -64 136q-34 20 -76 20q-97 0 -215 -98v-484q0 -31 19.5 -38.5t85.5 -7.5h36l-2 -66h-397z" />
<glyph unicode="i" horiz-adv-x="542" d="M56 770q152 24 288 62v-711q0 -39 18 -46q24 -9 109 -9h37v-66h-444v66h18q94 0 103 8q15 14 15 38v548q0 39 -6 52t-29 13q-23 -1 -107 -17zM209 1218q0 22 32.5 53t52.5 31t54.5 -32t34.5 -54t-35.5 -57t-56.5 -35t-51.5 36t-30.5 58z" />
<glyph unicode="j" horiz-adv-x="509" d="M-135 -446q0 24 38.5 58t60.5 34t37 -14t29 -30q35 -44 56 -44q94 0 94 278v801q0 56 -8 66t-16 14t-16 4q-8 -1 -95 -19l-10 62q62 10 107 20q132 32 182 44v-926q0 -166 -24 -226t-43.5 -85t-35.5 -37t-23.5 -17l-28.5 -19t-43 -24q-56 -28 -95.5 -28t-77.5 13t-63 32 t-25 43zM156 1218q0 22 32 53t52 31t55 -32t35 -54t-35.5 -57t-57 -35t-51.5 36t-30 58z" />
<glyph unicode="k" horiz-adv-x="966" d="M35 1432q204 40 266 53v-1075l375 305q14 11 14 18q0 15 -43 15h-61v55h330l-2 -55h-32q-32 0 -54 -8t-58 -38l-291 -231l305 -357q6 -7 16 -18.5t13 -14t9 -8t12.5 -5.5t16 -1t25.5 -1h56l-2 -66h-242l-320 393l-71 -55v-222q0 -36 18 -43q19 -7 89 -7h55l2 -66h-420v66 h46t31 1t17 1.5t10.5 3.5t7 5t3.5 8.5t2 10.5v1192q0 57 -5.5 76.5t-23.5 19.5t-90 -18z" />
<glyph unicode="l" horiz-adv-x="536" d="M35 1440q174 24 301 47v-1366q0 -37 23.5 -46t107.5 -9h35v-66h-446v66h44q54 0 73 9.5t19 45.5v1167q0 66 -6 84t-26.5 18t-120.5 -20z" />
<glyph unicode="m" horiz-adv-x="1415" d="M35 704v64q73 10 235 46l52 12q-4 -70 -4 -150q6 4 28.5 21t49 34.5t59.5 35.5q76 42 130.5 42t83.5 -12.5t45 -28.5t29 -38q17 -28 23 -52q126 94 186.5 112.5t98.5 18.5t68.5 -9.5t50.5 -24.5t35 -38t23 -45t12 -51q7 -43 7 -103v-422q0 -36 18 -44q16 -6 95 -6h20v-66 h-397v66q84 0 103 6q18 6 18 42v424q0 130 -70 150q-22 6 -56 6t-68 -7t-57 -17q-46 -20 -77 -44q8 -64 8 -147v-379q0 -24 11 -28t24 -5q19 -1 68 -1h18v-66h-389l-2 66h24q64 0 83.5 5t19.5 27v440q0 78 -30.5 117t-108.5 39t-180 -66v-518q0 -33 9.5 -36.5t23.5 -5.5 q16 -2 75 -2h10v-66h-399l-2 66h57q51 0 66 8q16 6 16 36v510q0 67 -4.5 86t-27.5 19q-3 -1 -111 -21z" />
<glyph unicode="n" horiz-adv-x="948" d="M35 66h44.5t29.5 1.5t16 2.5t10.5 6t7 8t3.5 12.5t2 16.5v509q0 66 -6 84q-6 19 -26 19q-6 -1 -77 -17v64l252 52q-7 -80 -7 -146q7 3 28.5 18.5t48.5 33.5t62 37q80 42 145.5 42t96.5 -10.5t51.5 -25.5t35 -43.5t21.5 -52t11 -63.5q4 -50 4 -135v-352q0 -44 23 -52.5 t103 -8.5l-2 -66h-382l-2 66h48q54 0 59 10q10 18 10 51v411q0 86 -31.5 121t-111 35t-211.5 -66v-514q0 -26 11 -34t18.5 -9t21.5 -3q18 -2 72 -2h26l-4 -66h-399z" />
<glyph unicode="o" horiz-adv-x="937" d="M51 400q0 64 15 125t47.5 115t78.5 94q102 87 264 87q202 0 314 -118q117 -122 117 -326q0 -174 -114 -290q-117 -117 -312 -117q-231 0 -345 188q-65 108 -65 242zM215 457q0 -65 12 -122t35.5 -108.5t56 -91t76 -63t92.5 -23.5t88 18.5t65 50t43 74.5q32 80 32 180.5 t-22.5 172t-60.5 116.5q-80 91 -194 91q-92 0 -156 -76q-67 -80 -67 -219z" />
<glyph unicode="p" horiz-adv-x="1005" d="M28 -465q94 0 110 5.5t22 11.5q8 8 8 32v1070q0 56 -33 56l-92 -20l-2 66q54 10 153 36q100 28 118 32v-168q96 96 213 135q47 16 91 16q95 0 173.5 -54.5t122.5 -145t44 -180.5t-18 -156.5t-52 -120.5t-81 -93q-98 -81 -240 -81q-128 0 -222 25l-31 9v-424q0 -35 29 -43 t132 -8h31l-2 -65h-472zM312 112q56 -42 131.5 -55.5t124.5 -13.5t94.5 21.5t72.5 53.5t45 75q31 73 31 148t-22.5 138t-60.5 108q-84 99 -204 99q-102 0 -201 -84l-11 -10v-480z" />
<glyph unicode="q" horiz-adv-x="985" d="M49 387.5q0 70.5 26 141.5t70.5 123t102.5 90q114 75 250 75h4q96 0 183 -37q32 -14 58.5 -25t35.5 -11t18 7t14 16q11 22 13 44h40q0 -22 -6 -116q-12 -183 -12 -425v-678q0 -46 28 -52q28 -5 44 -5h78v-65h-517l-6 65h72q96 0 126.5 12.5t30.5 56.5v515 q-112 -84 -139 -96t-51 -21q-43 -16 -105.5 -16t-122 21.5t-102 59t-73.5 87t-45.5 106.5t-14.5 127.5zM190 459.5q0 -72.5 27.5 -136.5t71.5 -110q97 -103 215 -103q110 0 189 100l9 11v445q-114 76 -216 76q-168 0 -252 -138q-44 -72 -44 -144.5z" />
<glyph unicode="r" horiz-adv-x="700" d="M35 764q18 4 38.5 7.5t30.5 5t37.5 8t71 17t121.5 30.5v-232q0 2 23 41t44 66t44 50q52 52 108 52q59 0 97 -33q6 -6 16 -18l-78 -203l-33 13v26q0 47 -49 47q-34 0 -72.5 -19.5t-67 -53.5t-28.5 -72v-346q0 -58 20 -71t109 -13h88v-66h-489v66h38q65 0 73.5 8t12.5 18 q4 14 4 58v499q0 74 -23 74q-13 -1 -130 -23z" />
<glyph unicode="s" horiz-adv-x="710" d="M45 289l63 4l21 -170q62 -48 127.5 -64t96.5 -16t54.5 10.5t37.5 28.5q28 36 28 68t-8 52t-19.5 35.5t-31.5 33.5q-30 25 -82 59l-74 49q-154 100 -154 227q0 54 33 101.5t91 75.5t115 28t96.5 -9.5t63 -18.5t32.5 -9q16 0 16 62l65 -2v-310h-65l-2 146q-34 42 -124 60 q-33 8 -73 8t-76 -29t-36 -70q0 -30 9 -44t12 -19t12 -13.5t12.5 -11.5t16 -12t15.5 -12q11 -9 35 -25l92 -62q94 -64 118 -91t37 -49q26 -40 26 -89q0 -51 -18 -93q-17 -42 -49 -74q-70 -70 -200 -70q-70 0 -133 13t-67 13q-18 0 -18 -26l2 -21l-60 -4z" />
<glyph unicode="t" horiz-adv-x="647" d="M45 706q0 11 52.5 67.5t70 76.5t51.5 63q72 93 80 93q13 0 13 -15v-203h276l-12 -98h-264v-477q0 -92 87 -115q23 -6 54 -6t66 10t56 19.5t23 9.5q14 0 14 -23.5t-38 -55.5t-96 -53t-110 -21t-92 17t-62 47q-46 60 -46 154v494h-98q-24 0 -25 16z" />
<glyph unicode="u" horiz-adv-x="946" d="M35 731v61q157 14 249 32v-512q0 -131 44 -175q40 -41 126 -41q126 0 185 78v500q0 38 -9.5 49.5t-27 11.5t-39.5 -2q-52 -5 -55 -8l-6 63q114 8 280 36v-596q0 -136 10 -148q11 -14 26.5 -14t93.5 22v-66q-73 -15 -151.5 -37t-100.5 -28q-3 73 -15 145 q-76 -83 -181 -118q-42 -14 -83 -14t-76 9t-60 25t-43 40t-30 50t-18 59q-12 55 -12 129v404q0 31 -9 41.5t-31 10.5z" />
<glyph unicode="v" horiz-adv-x="944" d="M35 738v65h369l-2 -65h-30q-38 0 -53.5 -5.5t-15.5 -22.5q1 -16 23 -73l182 -434q54 129 111 251q57 124 71 154q33 72 33 96t-18.5 29t-71.5 5h-7v65h284v-65h-13q-35 0 -52 -13t-30 -38q-26 -47 -90 -191l-239 -533l-30 2l-288 661q-36 80 -48 91t-26 15q-16 6 -59 6z " />
<glyph unicode="w" horiz-adv-x="1615" d="M35 738v65h430l-2 -65h-61q-62 0 -62 -36q0 -16 20 -65l191 -445l217 474q-19 46 -40.5 59t-65.5 13h-76l-4 65h442v-65q-92 0 -100 -10.5t-8 -21t18 -59.5l190 -453l220 464q16 37 16 52q0 28 -90 28h-54v65h363l2 -65q-62 0 -76.5 -7t-26.5 -14q-22 -13 -38 -47 l-340 -705l-46 2l-247 611l-277 -615l-42 2l-285 661q-28 64 -38.5 82t-33 24t-96.5 6z" />
<glyph unicode="x" horiz-adv-x="1067" d="M35 0l2 66h16q60 0 80 12q36 22 72 57l258 258l-265 281q-42 44 -52 48q-8 4 -22 8q-18 8 -62 8v65h444v-65h-41q-51 0 -74 -4.5t-23 -18t23 -41.5l160 -184l164 172q39 42 39 55q0 21 -92 21v65h360v-65h-41q-68 0 -81.5 -9.5t-25.5 -18.5t-18 -15.5t-24 -24.5 l-232 -230l284 -300q52 -58 65 -63t25 -8t21 -3h35v-66h-414v66q104 0 105 24q0 12 -18.5 32t-22.5 24l-170 198l-205 -217q-27 -30 -27 -42q0 -19 97 -19h49v-66h-389z" />
<glyph unicode="y" horiz-adv-x="960" d="M14 -436.5q0 41.5 22 63t56 21.5l60 -4q32 0 83.5 69.5t141.5 243.5l61 119l-256 550q-6 12 -14 31.5t-11 26t-10 18.5t-9.5 15t-11 9t-14 7t-18 3t-24.5 2h-31l-4 65h391l-4 -65h-35q-40 0 -55.5 -5.5t-15.5 -18t2.5 -22.5t5 -17t8.5 -20t8 -18l174 -391l129 290 q68 148 68 170q0 21 -20 26q-19 6 -71 6h-28v65h334v-65h-50q-28 0 -37 -3t-13.5 -4t-10.5 -7.5t-8.5 -9.5t-8.5 -14.5t-9 -17.5q-11 -26 -23 -54l-312 -688q-188 -414 -292 -458q-28 -12 -65.5 -12t-60 26t-22.5 67.5z" />
<glyph unicode="z" horiz-adv-x="901" d="M49 18.5q0 5.5 1.5 10t5 10t7 10t9.5 11t10.5 11.5t12 13t11.5 12l531 574h-418q-62 0 -69 -29q-17 -73 -17 -101l-53 2l32 292h52v-5q0 -23 4 -29q8 -8 41 -8h551q70 0 70 -14q0 -9 -31 -38.5t-47 -49.5l-518 -565h438q44 0 52.5 7.5t14.5 18t8.5 22t6.5 32.5 q4 26 10 104h68l-23 -309h-701q-49 0 -54 6.5t-5 12z" />
<glyph unicode="{" horiz-adv-x="575" d="M35 471v39q7 2 30 6t39 8.5t39 21t34 42.5q28 66 28 192l-7 250q0 315 210 394q58 22 132 22v-60q-148 0 -187 -131q-23 -77 -23 -213l10 -294q0 -105 -31 -166.5t-106 -89.5q98 -38 123 -142q12 -48 12 -116l-8 -294q0 -144 14 -191t30 -76t38 -47q50 -40 128 -40v-59 q-342 0 -342 424l9 249q0 119 -14.5 156.5t-22 50.5t-19 23t-20.5 15t-23 10t-23 7t-25 4.5t-25 4.5z" />
<glyph unicode="|" horiz-adv-x="450" d="M180 -473v1919h90v-1919h-90z" />
<glyph unicode="}" horiz-adv-x="575" d="M35 -414q177 0 205 210q8 58 8 144l-10 294q0 102 31.5 166t105.5 92q-75 28 -106 90t-31 166l8 294q0 186 -42 256q-26 44 -55 60q-52 28 -114 28v60q211 0 295 -174q48 -100 49 -242l-9 -250q0 -120 14 -155.5t21 -49t18.5 -23.5t20 -15.5t24.5 -10.5q22 -7 39 -10 q17 -4 19 -4q8 -2 14 -2v-39q-8 -2 -24 -4.5t-25 -4.5t-23 -7t-23 -10t-20 -15t-18 -23t-15 -33t-12 -44q-10 -58 -10 -130l9 -249q0 -328 -211 -403q-58 -21 -133 -21v59z" />
<glyph unicode="~" horiz-adv-x="2039" d="M123 456q14 84 52.5 159.5t63.5 111t62 72.5t78 62q94 58 192.5 58.5t175.5 -20t145 -53t135.5 -71.5t132 -78t126.5 -71q140 -73 254 -73q98 1 180 95q67 76 118 224q4 14 14 46l65 -13q0 -2 -7 -26.5t-16.5 -55.5t-28 -73.5t-42 -83t-60.5 -81.5t-80 -72 q-97 -69 -233 -69q-148 0 -304 70q-93 42 -216.5 112t-185.5 100q-142 70 -260 70q-106 0 -184 -91q-64 -74 -102 -218q-6 -21 -10 -45z" />
<glyph unicode="&#xa1;" horiz-adv-x="624" d="M226 1251q0 21 33 54t53.5 33t54 -34t33.5 -55.5t-35 -54.5t-55.5 -33t-52 34.5t-31.5 55.5zM236 2q2 128 27 402t27 345t2 101v47t1 38t3 31.5t6 20.5q7 18 19.5 18.5t18 -4.5t9 -11t5.5 -15.5t4 -16.5q15 -101 27.5 -448t12.5 -463q0 -48 -109 -65q-18 -2 -27 -2 q-26 0 -26 22z" />
<glyph unicode="&#xa2;" horiz-adv-x="874" d="M49 466.5q0 159.5 114 293t314 133.5l147 592l82 -11l-170 -587q108 -18 182 -79.5t74 -143.5q0 -51 -35 -88.5t-82.5 -37.5t-79.5 29t-32 60t12.5 52t27.5 32q40 32 40 51.5t-36.5 42.5t-84.5 25l-196 -724q68 -62 166 -61q124 0 229 101q39 38 59 67l46 -43 q-2 -1 -18 -19t-35 -38t-52 -45.5t-68 -45.5q-84 -47 -178 -46.5t-174 36.5l-107 -426l-71 18l127 437q-92 58 -146.5 162t-54.5 263.5zM212.5 451.5q-0.5 -191.5 67.5 -291.5l179 664q-76 -14 -132 -70q-114 -111 -114.5 -302.5z" />
<glyph unicode="&#xa3;" horiz-adv-x="890" d="M35 46.5q0 29.5 15.5 55.5t42.5 44.5t53 33t56 28.5t44 24q20 22 32 88q11 66 11 122l-7 60h-226v80h218q-18 194 -18 264t19 160t53 154t81 108q92 86 224 86q124 0 191 -92q32 -44 32 -90t-23 -73.5t-55 -27.5q-67 1 -86 101q-12 52 -20 68q-22 45 -82 46h-14t-33 -7 t-43 -23t-38 -41q-38 -56 -38 -154l2 -326q0 -71 -10 -153h244v-80h-256q-28 -138 -75 -227l-15 -29q10 6 35 6t58 -11t58 -29t48.5 -39t44.5 -43q20 -22 40 -39q44 -40 80.5 -40t58 28.5t21.5 54.5t-8.5 42.5t-20.5 29t-24 25.5q-29 30 -29 61.5t18 54.5t47.5 23t55.5 -26 q53 -54 53 -129.5t-30 -128t-87 -84.5t-107.5 -32t-77 7t-43.5 17t-36 29t-30 33t-30 40q-74 104 -112 104q-32 0 -63 -80q-36 -93 -66 -119.5t-62 -26.5t-51.5 21.5t-19.5 51z" />
<glyph unicode="&#xa4;" horiz-adv-x="1067" d="M35 85.5q0 16.5 6 27.5q9 17 31 39l139 141q-80 106 -80 242.5t78 240.5l-137 142q-36 32 -36.5 58.5t15.5 42t40 15.5q25 0 61 -36l141 -142q106 80 239.5 80t241.5 -80l142 142q34 34 59.5 34t41 -16t15.5 -32t-6 -28q-8 -16 -30 -38l-142 -144q84 -116 84 -241 t-84 -238l142 -143q36 -32 36 -59t-17 -42.5t-33 -15.5t-28 6q-16 9 -38 31l-142 141q-108 -80 -242 -80t-239 78l-141 -139q-34 -34 -61 -34.5t-41.5 15.5t-14.5 32.5zM248 532.5q0 -79.5 38.5 -145.5t104 -103.5t142 -37.5t142.5 38.5t105 105t39 144.5t-38.5 145.5 t-104.5 108t-144 40.5t-143.5 -40.5t-103 -108t-37.5 -147z" />
<glyph unicode="&#xa5;" horiz-adv-x="1308" d="M56 1284l2 82h458v-82h-51q-52 0 -74.5 -5t-22.5 -21q0 -14 70 -124l260 -409l359 508q12 21 12 25q0 17 -31.5 21.5t-101.5 4.5h-33l-2 82h373v-82h-10q-60 0 -77 -15q-29 -26 -61 -71l-274 -395h219l-25 -99h-276l-43 -69v-133h344l-25 -98h-319v-230q0 -66 11.5 -75 t27.5 -13q20 -6 80 -6h94l-2 -80h-576l2 80h82q76 0 89 9t16 15t6 16q4 14 4 50v234h-323l24 98h299v150l-31 52h-292l24 99h192l-228 356q-6 10 -18 28t-17 26t-14 21l-12 17q-20 29 -48 31q-4 0 -16.5 1t-20.5 1h-24z" />
<glyph unicode="&#xa6;" horiz-adv-x="450" d="M180 295h90v-768h-90v768zM180 678v768h90v-768h-90z" />
<glyph unicode="&#xa7;" horiz-adv-x="919" d="M110 604q0 140 89 198q48 32 108 32q6 0 15.5 -1t11.5 -1q0 2 -13 16t-30 34t-37.5 52t-37.5 68q-40 82 -40 154t15 117t40 75t59 50q64 39 131 39.5t110 -11.5t73 -32t52 -46q42 -50 42 -110.5t-29 -88t-75 -27.5t-87.5 27t-41.5 55t23.5 65t23.5 55.5t-17 32t-43 13.5 q-174 0 -174 -164q0 -95 138 -220q40 -36 84 -74t88 -78.5t84 -87t70 -95.5q67 -108 67 -233q0 -98 -22 -138t-39 -57t-38 -27q-38 -16 -64.5 -16t-37.5 1.5t-27 5t-18 3.5q201 -184 201 -368q0 -124 -87 -190q-81 -62 -191 -62q-142 0 -232 90q-62 63 -62 143.5t35 123.5 t87 43q14 0 41 -15t50 -40t23 -44t-12.5 -39t-27.5 -37q-40 -43 -40 -64t3 -32t13 -23t25 -22q36 -21 87.5 -20.5t90.5 18.5t67 54t28 77t-17 80t-43 72t-66 71t-77 69q-108 89 -170.5 154.5t-104.5 135.5q-74 124 -74 239zM203 687.5q0 -44.5 23.5 -96t60 -101.5t83 -100 t92.5 -87q102 -84 153 -84t82.5 25t31.5 69.5t-34.5 110.5t-85 129t-105 119t-99 90t-61.5 34q-64 0 -102.5 -32t-38.5 -76.5z" />
<glyph unicode="&#xa8;" horiz-adv-x="798" d="M169 1121.5q0 22.5 35.5 55.5t56.5 33t51.5 -36.5t30.5 -57.5t-34.5 -52.5t-54.5 -31.5t-52.5 33.5t-32.5 56zM468 1122q0 22 37 55t58 33t50 -36t29 -58t-34.5 -53t-54 -31t-52.5 34t-33 56z" />
<glyph unicode="&#xa9;" horiz-adv-x="1654" d="M90 483.5q0 102.5 26 197.5t73 177t116 150.5t150 116.5q175 102 383 102q310 0 520 -219q132 -138 182 -327q25 -96 24.5 -195.5t-24.5 -194.5t-69 -178t-111 -152t-145 -119q-167 -104 -379 -104q-326 0 -538 215q-134 136 -183 330q-25 98 -25 200.5zM180 484 q0 -108 32 -210t91 -184t139 -144q168 -128 396 -128q130 0 247 52t202.5 141t136 214t50.5 247t-30 220t-86.5 180t-133.5 143q-164 130 -388 130q-222 0 -391 -129q-170 -130 -233 -324q-32 -100 -32 -208zM334 460q0 74 16 136.5t44 111t67 89t83 69t94 47.5 q94 38 184 37.5t159 -12.5t103.5 -26t63.5 -28q30 -16 32 -16v-143q0 -33 -5 -33t-14 9.5t-22 25t-31 33.5t-45 36.5t-59 33.5q-70 34 -158.5 34t-158 -31.5t-116.5 -84.5q-100 -112 -100 -264q0 -198 158 -329q103 -85 241 -85q136 0 232 74q43 34 70 75t30.5 41t3.5 -34 v-114q-87 -79 -239 -111q-64 -14 -144.5 -13.5t-161.5 25.5t-140 69t-102 104t-64 130t-21 144z" />
<glyph unicode="&#xaa;" horiz-adv-x="786" d="M90 949.5q0 65.5 46 123t127 92.5t177 35v98q0 68 -29 92q-28 22 -73.5 21.5t-72.5 -5.5t-41 -12q-30 -16 -38 -32l17 -70q0 -16 -21.5 -29t-35.5 -13q-42 0 -42 58q0 38 28 72t52 52t55 31q69 30 173 30q108 0 143 -71q13 -26 13 -60v-310q0 -93 53 -127 q23 -14 49 -20.5t26 -16.5t-45 -36t-75 -41q-47 32 -78.5 70.5t-41.5 50.5q-36 -47 -92 -79t-98 -32t-70 7.5t-52 22.5q-54 33 -54 98.5zM217 993.5q0 -31.5 23.5 -54.5t68 -23t70 8t38.5 22q23 26 23 58v149q-152 0 -208 -101q-15 -27 -15 -58.5z" />
<glyph unicode="&#xab;" horiz-adv-x="778" d="M82 442l311 273l33 -37l-190 -236l190 -233l-33 -39zM352 442l311 273l33 -37l-190 -236l190 -233l-33 -39z" />
<glyph unicode="&#xac;" horiz-adv-x="1474" d="M164 422v118h1146v-608h-120v490h-1026z" />
<glyph unicode="&#xad;" horiz-adv-x="645" d="M70 494v122l506 150v-125z" />
<glyph unicode="&#xae;" horiz-adv-x="1026" d="M90 1119q0 87 33 167t89 138t135 92t157 34t143.5 -21.5t117.5 -61.5q53 -40 91 -93q80 -112 80 -256q0 -178 -112 -302q-116 -126 -312 -126q-86 0 -165 34t-135 92t-89 137t-33 166zM154 1117q0 -99 48 -183t132 -132t187 -48t184.5 49t124 131t42.5 169.5t-28 157 t-75 120.5q-104 112 -251 112q-100 0 -184 -51.5t-132 -138.5t-48 -186zM297 1348l2 48h168q112 0 162.5 -40t50.5 -109q0 -89 -98 -121l133 -176q13 -16 25 -16h20l2 -50h-102l-158 226h-12l-58 2v-170q0 -6 1.5 -7t8.5 -1h50l-2 -50h-187v50h21q28 0 28 6v391 q0 10 -5 13.5t-21 3.5h-29zM432 1155q8 -2 56 -2q100 0 100 84q0 50 -38 81q-38 30 -106 30q-8 0 -10 -4t-2 -21v-168z" />
<glyph unicode="&#xaf;" horiz-adv-x="798" d="M176 1065v99h470v-99h-470z" />
<glyph unicode="&#xb0;" horiz-adv-x="675" d="M90 1245q0 67 33 124t90 90.5t125 33.5t125 -33.5t90 -90.5t33 -116t-20 -104.5t-53 -78.5q-72 -72 -175 -72q-68 0 -125 33t-90 90t-33 124zM164 1245q0 -73 51 -124.5t123 -51.5t124 51.5t52 124t-52 124t-124 51.5t-123 -51t-51 -124z" />
<glyph unicode="&#xb1;" horiz-adv-x="1484" d="M164 -47v121h1157v-121h-1157zM164 592v118q398 0 495 -6l33 -2q-10 82 -10 447h121q0 -318 -8 -412l-3 -35q104 8 529 8v-118q-398 0 -496 6l-33 2q10 -80 11 -446h-121q0 322 8 415l2 31q-82 -8 -528 -8z" />
<glyph unicode="&#xb2;" horiz-adv-x="817" d="M82 512q0 6 61 65.5t106 106t90 101.5t83 111q84 126 84 232q0 118 -95 162q-42 19 -86 19t-77.5 -7.5t-50.5 -18.5t-29 -22q-28 -26 -42 -26t-14 21.5t20 46.5t54 46q78 48 204 48t205 -73t79 -185q0 -122 -138 -282q-86 -101 -228 -213q-68 -54 -68 -60t65.5 -6t155 11 t137.5 24t83 24t44.5 11t9.5 -15t-13 -67t-19.5 -56.5t-8.5 -5.5q-8 -4 -68 -4h-507q-37 0 -37 12z" />
<glyph unicode="&#xb3;" horiz-adv-x="849" d="M82 580q0 20 26 20q10 0 50 -17q76 -34 154.5 -34t121 14.5t67.5 36.5t40 50q26 48 26.5 95.5t-25.5 91t-74.5 76.5t-84 38t-50 7t-22.5 2.5t-16 2.5q-15 4 -15 16q0 22 52 32.5t79 27t42 35t23 40.5q14 34 14 61t-10 49t-28 42t-49 33.5t-67 13.5t-65.5 -7t-46.5 -17 t-30 -20q-30 -23 -42 -23q-18 0 -19 22q0 24 30.5 51t58.5 43q68 38 143 38.5t121 -11t83 -33.5q83 -48 83 -137t-94 -157q-60 -44 -144 -66q140 -18 232 -89q82 -63 81 -159q0 -158 -160 -230q-93 -40 -211 -40q-106 0 -167 23t-84 41t-23 38z" />
<glyph unicode="&#xb4;" horiz-adv-x="798" d="M352 958l106 332h144l-176 -332h-74z" />
<glyph unicode="&#xb5;" horiz-adv-x="1060" d="M35 -291q0 69 18.5 159t54.5 217q58 205 102.5 424t52 242t21.5 23q12 0 37 -7q49 -14 49 -40q0 -18 -46 -277t-46 -284.5t4 -39.5q8 -36 41 -36t82.5 39t96.5 99t95 138q87 140 151 286q29 60 38 88q8 28 12 30q6 4 27 4t52 -11t31 -22.5t-33 -141.5q-97 -391 -97 -451 q0 -20 15 -34t37.5 -14t44 21t33.5 45q32 66 52 66q24 0 24.5 -28.5t-13 -60t-39.5 -63.5t-58 -60q-75 -62 -164 -63q-82 0 -82 135q0 50 21 163t21 118.5t-4.5 5.5t-12.5 -12.5t-22.5 -37.5t-33.5 -57q-47 -76 -115 -152q-144 -158 -250 -157q-22 0 -38 13.5t-22.5 30.5 t-11 30.5t-7.5 13.5t-13 -40q-24 -108 -24 -161.5t12 -90.5t24 -66t12 -35t-2 -12.5t-6.5 -16t-11.5 -17.5q-18 -20 -50 -20t-45.5 24t-13.5 93z" />
<glyph unicode="&#xb6;" horiz-adv-x="1435" d="M90 698q0 320 226 528q136 126 332 172q96 23 179.5 23.5t136 -10.5t79.5 -27q54 -32 54.5 -55t-11.5 -34t-25 -11t-34 11t-43 25q-58 36 -158 36l-116 -10v-1374q70 -17 156 -24t143 -13.5t106 -14.5t95 -23.5t78 -35.5q72 -45 72 -127q0 -48 -23.5 -86.5t-62.5 -38.5 q-56 0 -56 53l15 52q0 67 -197 112q-89 20 -184 38q-257 48 -357.5 94t-179.5 121.5t-127 171.5q-98 191 -98 447zM430 88q78 -66 205 -100v1337q-124 -31 -205 -101v-1136z" />
<glyph unicode="&#xb7;" horiz-adv-x="411" d="M119 684q0 22 35.5 55t56.5 33t51.5 -36t30.5 -58t-34.5 -52t-54.5 -30t-52.5 33t-32.5 55z" />
<glyph unicode="&#xb8;" horiz-adv-x="798" d="M290 -424l43 49q62 -20 104 -20.5t68.5 26.5t26.5 65t-14 58t-36 31q-45 20 -86.5 20.5t-56.5 -1.5l-25 34l58 176h47l-45 -149l35 2q92 0 144 -26q91 -46 91 -130q0 -114 -141 -151q-39 -10 -81 -10q-86 0 -132 26z" />
<glyph unicode="&#xb9;" horiz-adv-x="704" d="M144 500v60h42h32q54 0 60.5 4.5t11.5 8t6.5 7.5t3.5 9q3 7 3 27v634q0 36 -12 46q-11 9 -55 9h-84l2 57h180q51 0 75 44q7 12 9 16l28 -2q-12 -191 -12 -326v-478q0 -40 22 -48q24 -8 166 -8v-60h-478z" />
<glyph unicode="&#xba;" horiz-adv-x="825" d="M90 1162q0 51 11.5 99.5t36.5 92t61 75.5q79 70 203 70q212 0 292 -168q41 -86 41 -171.5t-23.5 -145.5t-65.5 -104q-90 -95 -240 -95q-178 1 -266 153q-50 86 -50 194zM232 1219q0 -95 22.5 -167t67.5 -121t95 -49t82 22q32 24 50 62q34 76 34.5 164t-15.5 145t-43 92 q-56 72 -129.5 72.5t-118.5 -62.5t-45 -158z" />
<glyph unicode="&#xbb;" horiz-adv-x="780" d="M82 209l190 233l-190 236l32 37l312 -273l-312 -272zM354 209l190 233l-190 236l32 37l312 -273l-312 -272z" />
<glyph unicode="&#xbc;" horiz-adv-x="1953" d="M144 500v60h42h32q54 0 60.5 4.5t11.5 8t6.5 7.5t3.5 9q3 7 3 27v634q0 36 -12 46q-11 9 -55 9h-84l2 57h180q51 0 75 44q7 12 9 16l28 -2q-12 -191 -12 -326v-478q0 -40 22 -48q24 -8 166 -8v-60h-478zM415 -76l1059 1510h104l-1058 -1510h-105zM1123 256q0 16 28.5 48 t69 75.5t76 83t93.5 102.5q108 121 282 330q12 14 23 14.5t11 -35.5v-514h166l-32 -114h-134v-266h-128v266h-434q-20 0 -21 10zM1285 360h293v338z" />
<glyph unicode="&#xbd;" horiz-adv-x="2021" d="M144 500v60h42h32q54 0 60.5 4.5t11.5 8t6.5 7.5t3.5 9q3 7 3 27v634q0 36 -12 46q-11 9 -55 9h-84l2 57h180q51 0 75 44q7 12 9 16l28 -2q-12 -191 -12 -326v-478q0 -40 22 -48q24 -8 166 -8v-60h-478zM415 -76l1059 1510h104l-1058 -1510h-105zM1286 12q0 6 61 65.5 t106 106t90 101.5t83 111q84 126 84 232q0 118 -95 162q-42 19 -86 19t-77.5 -7.5t-50.5 -18.5t-29 -22q-28 -26 -42 -26t-14 21.5t20 46.5t54 46q78 48 204 48t205 -73t79 -185q0 -122 -138 -282q-86 -101 -228 -213q-68 -54 -68 -60t65.5 -6t155 11t137.5 24t83 24 t44.5 11t9.5 -15t-13 -67t-19.5 -56.5t-8.5 -5.5q-8 -4 -68 -4h-507q-37 0 -37 12z" />
<glyph unicode="&#xbe;" horiz-adv-x="2017" d="M82 580q0 20 26 20q10 0 50 -17q76 -34 154.5 -34t121 14.5t67.5 36.5t40 50q26 48 26.5 95.5t-25.5 91t-74.5 76.5t-84 38t-50 7t-22.5 2.5t-16 2.5q-15 4 -15 16q0 22 52 32.5t79 27t42 35t23 40.5q14 34 14 61t-10 49t-28 42t-49 33.5t-67 13.5t-65.5 -7t-46.5 -17 t-30 -20q-30 -23 -42 -23q-18 0 -19 22q0 24 30.5 51t58.5 43q68 38 143 38.5t121 -11t83 -33.5q83 -48 83 -137t-94 -157q-60 -44 -144 -66q140 -18 232 -89q82 -63 81 -159q0 -158 -160 -230q-93 -40 -211 -40q-106 0 -167 23t-84 41t-23 38zM479 -76l1059 1510h104 l-1058 -1510h-105zM1186 256q0 16 28.5 48t69 75.5t76 83t93.5 102.5q108 121 282 330q12 14 23 14.5t11 -35.5v-514h166l-32 -114h-134v-266h-128v266h-434q-20 0 -21 10zM1348 360h293v338z" />
<glyph unicode="&#xbf;" horiz-adv-x="813" d="M123 379q0 50 12 84.5t46.5 75.5t81.5 85t81 73.5t66 60.5q64 64 63 122q0 68 -62 127q-34 31 -34 47q1 28 29 28q38 0 75.5 -34t59.5 -63.5t36.5 -73t14.5 -90.5t-20 -90.5t-52 -78t-70 -67.5t-76 -65q-39 -34 -71 -66q-71 -74 -71 -153q0 -36 37 -75.5t99 -66 t128 -26.5l124 2q28 -1 29 -25q0 -28 -41 -62q-76 -66 -141 -66q-44 0 -104.5 41.5t-99.5 80t-70 80.5q-70 96 -70 195zM326 1270q0 22 37 59t61 37t61 -38t37 -62t-39 -58t-63 -34t-59 37t-35 59z" />
<glyph unicode="&#xc0;" horiz-adv-x="1486" d="M56 80h24q55 0 73.5 19t42.5 73t62.5 139.5t97 216t84.5 187.5t45 98.5t26 58t15 36.5l209 507h43q124 -324 313.5 -782.5t209.5 -496t41.5 -47t58.5 -9.5h31l-2 -80h-468l2 80h62q51 0 70.5 4t19.5 20q0 12 -9 35t-11 29l-152 372h-475l-162 -360q-20 -50 -20.5 -69.5 t15.5 -25t68 -5.5h84v-80h-396zM508 631h402l-195 485zM551 1780h143l107 -291h-74z" />
<glyph unicode="&#xc1;" horiz-adv-x="1486" d="M56 80h24q55 0 73.5 19t42.5 73t62.5 139.5t97 216t84.5 187.5t45 98.5t26 58t15 36.5l209 507h43q124 -324 313.5 -782.5t209.5 -496t41.5 -47t58.5 -9.5h31l-2 -80h-468l2 80h62q51 0 70.5 4t19.5 20q0 12 -9 35t-11 29l-152 372h-475l-162 -360q-20 -50 -20.5 -69.5 t15.5 -25t68 -5.5h84v-80h-396zM508 631h402l-195 485zM709 1489l106 291h144l-176 -291h-74z" />
<glyph unicode="&#xc2;" horiz-adv-x="1486" d="M56 80h24q55 0 73.5 19t42.5 73t62.5 139.5t97 216t84.5 187.5t45 98.5t26 58t15 36.5l209 507h43q124 -324 313.5 -782.5t209.5 -496t41.5 -47t58.5 -9.5h31l-2 -80h-468l2 80h62q51 0 70.5 4t19.5 20q0 12 -9 35t-11 29l-152 372h-475l-162 -360q-20 -50 -20.5 -69.5 t15.5 -25t68 -5.5h84v-80h-396zM508 631h402l-195 485zM547 1528q64 90 164 244h120q72 -116 164 -244h-118q-28 31 -70 79.5t-58 68.5l-124 -148h-78z" />
<glyph unicode="&#xc3;" horiz-adv-x="1486" d="M56 80h24q55 0 73.5 19t42.5 73t62.5 139.5t97 216t84.5 187.5t45 98.5t26 58t15 36.5l209 507h43q124 -324 313.5 -782.5t209.5 -496t41.5 -47t58.5 -9.5h31l-2 -80h-468l2 80h62q51 0 70.5 4t19.5 20q0 12 -9 35t-11 29l-152 372h-475l-162 -360q-20 -50 -20.5 -69.5 t15.5 -25t68 -5.5h84v-80h-396zM508 631h402l-195 485zM512 1542q1 4 2.5 12t8 30.5t14 43t21 45.5t27.5 42q36 42 81 42.5t89 -24.5l62 -33q40 -20 64 -20t41 9t29 23q23 29 34 60l28 -8q-18 -98 -74 -157q-35 -36 -74 -36q-38 1 -80 19l-64 30q-41 20 -73.5 20t-49.5 -11 t-27 -26q-22 -35 -30 -69z" />
<glyph unicode="&#xc4;" horiz-adv-x="1486" d="M56 80h24q55 0 73.5 19t42.5 73t62.5 139.5t97 216t84.5 187.5t45 98.5t26 58t15 36.5l209 507h43q124 -324 313.5 -782.5t209.5 -496t41.5 -47t58.5 -9.5h31l-2 -80h-468l2 80h62q51 0 70.5 4t19.5 20q0 12 -9 35t-11 29l-152 372h-475l-162 -360q-20 -50 -20.5 -69.5 t15.5 -25t68 -5.5h84v-80h-396zM508 631h402l-195 485zM520 1658q0 22 36.5 55t58 33t50.5 -36t29 -57.5t-34.5 -53t-54 -31.5t-52.5 34t-33 56zM822 1658q0 22 35.5 55t56.5 33t51.5 -36t30.5 -57.5t-35 -53t-54.5 -31.5t-52 34t-32.5 56z" />
<glyph unicode="&#xc5;" horiz-adv-x="1486" d="M56 80h24q55 0 73.5 19t42.5 73t62.5 139.5t97 216t84.5 187.5t45 98.5t26 58t15 36.5l209 507h43q124 -324 313.5 -782.5t209.5 -496t41.5 -47t58.5 -9.5h31l-2 -80h-468l2 80h62q51 0 70.5 4t19.5 20q0 12 -9 35t-11 29l-152 372h-475l-162 -360q-20 -50 -20.5 -69.5 t15.5 -25t68 -5.5h84v-80h-396zM508 631h402l-195 485zM590 1633q0 51 23.5 91t63 66.5t93 26.5t102.5 -50.5t49 -113.5t-47 -110t-113 -47t-118.5 43t-52.5 94zM661.5 1636.5q-0.5 -32.5 26.5 -56t58 -23.5t46 4.5t29 14.5q30 22 30.5 64t-9 62t-24.5 30q-28 19 -55.5 19.5 t-46 -8.5t-28.5 -21t-16 -28q-10 -25 -10.5 -57.5z" />
<glyph unicode="&#xc6;" horiz-adv-x="2156" d="M56 0l2 80h34q54 0 89 37q37 41 89 115l746 1054l-132 -2l-2 82h1123q4 -192 10 -322l-79 -4q-8 202 -31 227q-7 8 -23 9.5t-96 1.5h-348q-84 0 -96 -10t-14 -15t-4 -18q-3 -13 -3 -53v-285q0 -60 6.5 -66.5t14.5 -10.5q10 -5 46 -5h308q53 0 61.5 10.5t11.5 22.5 q5 20 5 66v82l76 -2v-490h-76v136q0 12 -1 25t-2 20t-4 14.5t-4 11t-7 7t-9 4.5t-12 2t-15 1h-328q-52 -1 -60 -11q-12 -14 -11 -52v-484q0 -54 11.5 -69t51.5 -15q410 4 488 10.5t89 17.5t17 27.5t33 178.5l70 -10l-51 -318h-1036v80h28q83 0 103.5 5t25 21t4.5 52v382 h-551l-256 -360q-36 -52 -36 -71t22 -24t78 -5h61v-80h-417zM668 631h487v602q0 30 -8.5 40.5t-28.5 10.5z" />
<glyph unicode="&#xc7;" horiz-adv-x="1509" d="M110 643q0 292 189 492q105 113 263 177q142 58 267.5 58t208 -10t120.5 -22t67 -22t39 -10t16 2t9 10q5 12 5 52v12h78q6 -200 24 -391l-73 -2q-10 80 -10.5 94.5t-3.5 31l-4 22t-6.5 15.5t-9 12t-13.5 9t-18 10q-17 6 -62.5 29.5t-142 42.5t-196.5 19t-190.5 -29.5 t-159.5 -83t-119 -124.5q-104 -145 -104 -335q0 -162 80 -311q78 -146 219 -239q144 -94 322 -94q171 0 336 110q91 60 92 100l7 172h71l-12 -298q-156 -110 -368 -156q-88 -19 -171 -19l-30 -102l34 2q92 0 144 -26q92 -46 92 -130q0 -114 -142 -151q-38 -10 -81 -10 q-83 0 -131 26l42 49q62 -20 104 -20.5t68.5 26.5t26.5 65t-13.5 58t-36.5 31q-45 20 -87 21q-42 0 -56 -2l-24 34l43 129q-334 11 -519 193q-184 180 -184 483z" />
<glyph unicode="&#xc8;" horiz-adv-x="1261" d="M56 1366h1054q2 -176 10 -322l-80 -4q-8 202 -30 227q-7 8 -23.5 9.5t-95.5 1.5h-349q-84 0 -95.5 -9t-16.5 -22q-6 -15 -6 -65v-285q0 -60 6 -66.5t15 -10.5q11 -5 47 -5h309q54 0 62 10.5t11 24.5q4 18 4 68v78l76 -2v-490h-76v106q0 86 -8 96.5t-11.5 13t-14 4 t-16.5 1.5h-330q-52 0 -62 -10q-12 -13 -12 -53v-484q0 -53 13 -68.5t53 -15.5q410 4 488 10.5t89 17.5t16.5 27.5t32.5 178.5l70 -10l-52 -318h-1038v80h54q76 0 87 8t16 18q5 14 5 52v1038q0 61 -22 76q-20 12 -122 12h-56zM426 1780h143l107 -291h-74z" />
<glyph unicode="&#xc9;" horiz-adv-x="1261" d="M56 1366h1054q2 -176 10 -322l-80 -4q-8 202 -30 227q-7 8 -23.5 9.5t-95.5 1.5h-349q-84 0 -95.5 -9t-16.5 -22q-6 -15 -6 -65v-285q0 -60 6 -66.5t15 -10.5q11 -5 47 -5h309q54 0 62 10.5t11 24.5q4 18 4 68v78l76 -2v-490h-76v106q0 86 -8 96.5t-11.5 13t-14 4 t-16.5 1.5h-330q-52 0 -62 -10q-12 -13 -12 -53v-484q0 -53 13 -68.5t53 -15.5q410 4 488 10.5t89 17.5t16.5 27.5t32.5 178.5l70 -10l-52 -318h-1038v80h54q76 0 87 8t16 18q5 14 5 52v1038q0 61 -22 76q-20 12 -122 12h-56zM584 1489l106 291h144l-176 -291h-74z" />
<glyph unicode="&#xca;" horiz-adv-x="1261" d="M56 1366h1054q2 -176 10 -322l-80 -4q-8 202 -30 227q-7 8 -23.5 9.5t-95.5 1.5h-349q-84 0 -95.5 -9t-16.5 -22q-6 -15 -6 -65v-285q0 -60 6 -66.5t15 -10.5q11 -5 47 -5h309q54 0 62 10.5t11 24.5q4 18 4 68v78l76 -2v-490h-76v106q0 86 -8 96.5t-11.5 13t-14 4 t-16.5 1.5h-330q-52 0 -62 -10q-12 -13 -12 -53v-484q0 -53 13 -68.5t53 -15.5q410 4 488 10.5t89 17.5t16.5 27.5t32.5 178.5l70 -10l-52 -318h-1038v80h54q76 0 87 8t16 18q5 14 5 52v1038q0 61 -22 76q-20 12 -122 12h-56zM422 1528q64 90 164 244h120q72 -116 164 -244 h-118q-28 31 -70 79.5t-58 68.5l-124 -148h-78z" />
<glyph unicode="&#xcb;" horiz-adv-x="1261" d="M56 1366h1054q2 -176 10 -322l-80 -4q-8 202 -30 227q-7 8 -23.5 9.5t-95.5 1.5h-349q-84 0 -95.5 -9t-16.5 -22q-6 -15 -6 -65v-285q0 -60 6 -66.5t15 -10.5q11 -5 47 -5h309q54 0 62 10.5t11 24.5q4 18 4 68v78l76 -2v-490h-76v106q0 86 -8 96.5t-11.5 13t-14 4 t-16.5 1.5h-330q-52 0 -62 -10q-12 -13 -12 -53v-484q0 -53 13 -68.5t53 -15.5q410 4 488 10.5t89 17.5t16.5 27.5t32.5 178.5l70 -10l-52 -318h-1038v80h54q76 0 87 8t16 18q5 14 5 52v1038q0 61 -22 76q-20 12 -122 12h-56zM395 1658q0 22 36.5 55t57.5 33t50.5 -36 t29.5 -57.5t-34.5 -53t-54.5 -31.5t-52.5 34t-32.5 56zM696 1658q0 22 36 55t57 33t51 -36t30 -57.5t-34 -53t-54 -31.5t-53 34t-33 56z" />
<glyph unicode="&#xcc;" horiz-adv-x="659" d="M56 1284l2 82h514v-82h-36q-71 0 -82.5 -4t-20 -9t-11 -11t-6.5 -16q-4 -16 -4 -54v-1016q0 -66 11 -75t25 -13q19 -6 74 -6h80l2 -80h-524l-2 80h53q80 0 92.5 9t16.5 21q6 16 6 60v1040q0 54 -10 60.5t-23 9.5q-15 4 -71 4h-86zM117 1780h143l107 -291h-74z" />
<glyph unicode="&#xcd;" horiz-adv-x="659" d="M56 1284l2 82h514v-82h-36q-71 0 -82.5 -4t-20 -9t-11 -11t-6.5 -16q-4 -16 -4 -54v-1016q0 -66 11 -75t25 -13q19 -6 74 -6h80l2 -80h-524l-2 80h53q80 0 92.5 9t16.5 21q6 16 6 60v1040q0 54 -10 60.5t-23 9.5q-15 4 -71 4h-86zM275 1489l106 291h144l-176 -291h-74z " />
<glyph unicode="&#xce;" horiz-adv-x="659" d="M56 1284l2 82h514v-82h-36q-71 0 -82.5 -4t-20 -9t-11 -11t-6.5 -16q-4 -16 -4 -54v-1016q0 -66 11 -75t25 -13q19 -6 74 -6h80l2 -80h-524l-2 80h53q80 0 92.5 9t16.5 21q6 16 6 60v1040q0 54 -10 60.5t-23 9.5q-15 4 -71 4h-86zM113 1528q64 90 164 244h120 q72 -116 164 -244h-118q-28 31 -70 79.5t-58 68.5l-124 -148h-78z" />
<glyph unicode="&#xcf;" horiz-adv-x="659" d="M56 1284l2 82h514v-82h-36q-71 0 -82.5 -4t-20 -9t-11 -11t-6.5 -16q-4 -16 -4 -54v-1016q0 -66 11 -75t25 -13q19 -6 74 -6h80l2 -80h-524l-2 80h53q80 0 92.5 9t16.5 21q6 16 6 60v1040q0 54 -10 60.5t-23 9.5q-15 4 -71 4h-86zM86 1658q0 22 36.5 55t58 33t50.5 -36 t29 -57.5t-34.5 -53t-54 -31.5t-52.5 34t-33 56zM388 1658q0 22 35.5 55t56.5 33t51.5 -36t30.5 -57.5t-35 -53t-54.5 -31.5t-52 34t-32.5 56z" />
<glyph unicode="&#xd0;" horiz-adv-x="1523" d="M56 1366h552q301 0 427 -40q170 -54 273 -192q126 -168 126 -399q0 -311 -207 -521q-211 -214 -607 -214h-528l-2 80h50q76 0 89 8.5t15 14t5 16.5q3 12 3 51v486h-156l2 98h154v456q0 54 -10 60.5t-23 9.5q-15 4 -71 4h-86zM418 174q0 -53 7 -63t16.5 -16.5t20.5 -8 t31 -3.5q25 -3 117 -3t184 18.5t159 50.5t119 77.5t85 96.5t54 111q38 108 38.5 204t-11.5 157.5t-38 121t-64 112t-94 97.5q-54 44 -122 76q-144 68 -342 68h-76q-36 0 -52 -6q-32 -12 -32 -90v-420h418l-2 -98h-416v-482z" />
<glyph unicode="&#xd1;" horiz-adv-x="1523" d="M56 1366h316l840 -1084v928q0 48 -22 64q-16 10 -90 10h-72l4 82h436v-82h-46q-64 0 -83 -12q-31 -18 -31 -78v-1180q0 -30 -2.5 -39.5t-15.5 -9.5h-28q-17 0 -20.5 4.5t-6 7t-8 11t-11.5 14.5l-892 1147l10 -975q0 -66 26 -81q26 -13 126 -13h34v-80h-430v80h62 q68 0 76 23q10 22 10 67v1090l-21 24h-159zM523 1542q1 4 2.5 12t8 30.5t14 43t21 45.5t27.5 42q36 42 81 42.5t89 -24.5l62 -33q40 -20 64 -20t41 9t29 23q23 29 34 60l28 -8q-18 -98 -74 -157q-35 -36 -74 -36q-38 1 -80 19l-64 30q-41 20 -73.5 20t-49.5 -11t-27 -26 q-22 -35 -30 -69z" />
<glyph unicode="&#xd2;" d="M110 690q0 97 28 200.5t78 182t117 140.5t147 101q162 80 341 80q237 0 425 -130q199 -138 257 -393q20 -90 20.5 -178t-14 -162.5t-44 -145.5t-72.5 -134t-103 -115t-132 -90q-152 -80 -353 -79q-281 -1 -469 165q-226 198 -226 558zM295 748q0 -82 11.5 -153t36 -138 t59 -127t81.5 -110q47 -52 104 -88q118 -76 273 -76q124 0 233 62q108 62 175 192q70 132 70 321q0 306 -177 502q-101 114 -245 157q-68 20 -124 20t-99.5 -8t-91.5 -27.5t-91.5 -49t-83 -75.5t-68.5 -103.5t-46 -137t-17 -161.5zM606 1780h143l107 -291h-74z" />
<glyph unicode="&#xd3;" d="M110 690q0 97 28 200.5t78 182t117 140.5t147 101q162 80 341 80q237 0 425 -130q199 -138 257 -393q20 -90 20.5 -178t-14 -162.5t-44 -145.5t-72.5 -134t-103 -115t-132 -90q-152 -80 -353 -79q-281 -1 -469 165q-226 198 -226 558zM295 748q0 -82 11.5 -153t36 -138 t59 -127t81.5 -110q47 -52 104 -88q118 -76 273 -76q124 0 233 62q108 62 175 192q70 132 70 321q0 306 -177 502q-101 114 -245 157q-68 20 -124 20t-99.5 -8t-91.5 -27.5t-91.5 -49t-83 -75.5t-68.5 -103.5t-46 -137t-17 -161.5zM764 1489l106 291h144l-176 -291h-74z" />
<glyph unicode="&#xd4;" d="M110 690q0 97 28 200.5t78 182t117 140.5t147 101q162 80 341 80q237 0 425 -130q199 -138 257 -393q20 -90 20.5 -178t-14 -162.5t-44 -145.5t-72.5 -134t-103 -115t-132 -90q-152 -80 -353 -79q-281 -1 -469 165q-226 198 -226 558zM295 748q0 -82 11.5 -153t36 -138 t59 -127t81.5 -110q47 -52 104 -88q118 -76 273 -76q124 0 233 62q108 62 175 192q70 132 70 321q0 306 -177 502q-101 114 -245 157q-68 20 -124 20t-99.5 -8t-91.5 -27.5t-91.5 -49t-83 -75.5t-68.5 -103.5t-46 -137t-17 -161.5zM602 1528q64 90 164 244h120 q72 -116 164 -244h-118q-28 31 -70 79.5t-58 68.5l-124 -148h-78z" />
<glyph unicode="&#xd5;" d="M110 690q0 97 28 200.5t78 182t117 140.5t147 101q162 80 341 80q237 0 425 -130q199 -138 257 -393q20 -90 20.5 -178t-14 -162.5t-44 -145.5t-72.5 -134t-103 -115t-132 -90q-152 -80 -353 -79q-281 -1 -469 165q-226 198 -226 558zM295 748q0 -82 11.5 -153t36 -138 t59 -127t81.5 -110q47 -52 104 -88q118 -76 273 -76q124 0 233 62q108 62 175 192q70 132 70 321q0 306 -177 502q-101 114 -245 157q-68 20 -124 20t-99.5 -8t-91.5 -27.5t-91.5 -49t-83 -75.5t-68.5 -103.5t-46 -137t-17 -161.5zM567 1542q1 4 2.5 12t8 30.5t14 43 t21 45.5t27.5 42q36 42 81 42.5t89 -24.5l62 -33q40 -20 64 -20t41 9t29 23q23 29 34 60l28 -8q-18 -98 -74 -157q-35 -36 -74 -36q-38 1 -80 19l-64 30q-41 20 -73.5 20t-49.5 -11t-27 -26q-22 -35 -30 -69z" />
<glyph unicode="&#xd6;" d="M110 690q0 97 28 200.5t78 182t117 140.5t147 101q162 80 341 80q237 0 425 -130q199 -138 257 -393q20 -90 20.5 -178t-14 -162.5t-44 -145.5t-72.5 -134t-103 -115t-132 -90q-152 -80 -353 -79q-281 -1 -469 165q-226 198 -226 558zM295 748q0 -82 11.5 -153t36 -138 t59 -127t81.5 -110q47 -52 104 -88q118 -76 273 -76q124 0 233 62q108 62 175 192q70 132 70 321q0 306 -177 502q-101 114 -245 157q-68 20 -124 20t-99.5 -8t-91.5 -27.5t-91.5 -49t-83 -75.5t-68.5 -103.5t-46 -137t-17 -161.5zM576 1658q0 22 36 55t57.5 33t51 -36 t29.5 -57.5t-35 -53t-54.5 -31.5t-52 34t-32.5 56zM877 1658q0 22 35.5 55t56.5 33t51.5 -36t30.5 -57.5t-34.5 -53t-54.5 -31.5t-52.5 34t-32.5 56z" />
<glyph unicode="&#xd7;" horiz-adv-x="1206" d="M123 86q320 320 386 377l21 19q-26 12 -407 394l86 84q350 -350 393 -407q32 43 396 407l86 -84q-324 -324 -386 -376l-22 -18q44 -32 408 -396l-86 -84q-310 310 -377 385l-19 23q-44 -58 -393 -408z" />
<glyph unicode="&#xd8;" d="M110 669q0 119 28 222t78 181.5t117 140.5t147 101q162 80 333 80t323 -69l84 143l84 -48l-82 -140q216 -142 279 -401q22 -93 22.5 -183.5t-14 -165t-44 -145.5t-72.5 -134t-103 -115t-132 -90q-152 -80 -338 -80q-184 0 -320 62l-136 -235l-84 49l134 232 q-99 63 -168.5 159.5t-102.5 206.5t-33 229zM295 709q0 -121 51.5 -261t147.5 -237l577 1003q-133 96 -293 96q-142 0 -268 -84q-214 -145 -215 -517zM570 146q133 -90 290 -90q124 0 233 62q108 62 175 192q70 132 70 308q0 336 -189 531z" />
<glyph unicode="&#xd9;" horiz-adv-x="1476" d="M56 1284v82h491l2 -82h-78q-61 0 -86 -14t-25 -62v-758q0 -142 90 -244q108 -124 338 -124q257 0 345 109q32 38 47.5 71t24.5 89q11 76 11 196v663q0 48 -22 64q-16 10 -90 10h-72l4 82h386v-82h-30q-34 0 -49 -6q-30 -10 -30 -84v-727q0 -341 -236 -451 q-115 -54 -289 -53q-442 0 -556 274q-38 89 -38 203v770q0 51 -14 61q-18 13 -70 13h-54zM570 1780h143l107 -291h-74z" />
<glyph unicode="&#xda;" horiz-adv-x="1476" d="M56 1284v82h491l2 -82h-78q-61 0 -86 -14t-25 -62v-758q0 -142 90 -244q108 -124 338 -124q257 0 345 109q32 38 47.5 71t24.5 89q11 76 11 196v663q0 48 -22 64q-16 10 -90 10h-72l4 82h386v-82h-30q-34 0 -49 -6q-30 -10 -30 -84v-727q0 -341 -236 -451 q-115 -54 -289 -53q-442 0 -556 274q-38 89 -38 203v770q0 51 -14 61q-18 13 -70 13h-54zM728 1489l106 291h144l-176 -291h-74z" />
<glyph unicode="&#xdb;" horiz-adv-x="1476" d="M56 1284v82h491l2 -82h-78q-61 0 -86 -14t-25 -62v-758q0 -142 90 -244q108 -124 338 -124q257 0 345 109q32 38 47.5 71t24.5 89q11 76 11 196v663q0 48 -22 64q-16 10 -90 10h-72l4 82h386v-82h-30q-34 0 -49 -6q-30 -10 -30 -84v-727q0 -341 -236 -451 q-115 -54 -289 -53q-442 0 -556 274q-38 89 -38 203v770q0 51 -14 61q-18 13 -70 13h-54zM566 1528q64 90 164 244h120q72 -116 164 -244h-118q-28 31 -70 79.5t-58 68.5l-124 -148h-78z" />
<glyph unicode="&#xdc;" horiz-adv-x="1476" d="M56 1284v82h491l2 -82h-78q-61 0 -86 -14t-25 -62v-758q0 -142 90 -244q108 -124 338 -124q257 0 345 109q32 38 47.5 71t24.5 89q11 76 11 196v663q0 48 -22 64q-16 10 -90 10h-72l4 82h386v-82h-30q-34 0 -49 -6q-30 -10 -30 -84v-727q0 -341 -236 -451 q-115 -54 -289 -53q-442 0 -556 274q-38 89 -38 203v770q0 51 -14 61q-18 13 -70 13h-54zM538 1658q0 22 37 55t58 33t50 -36t29 -57.5t-34 -53t-54 -31.5t-53 34t-33 56zM840 1658q0 22 36 55t57 33t51 -36t30 -57.5t-34.5 -53t-54 -31.5t-52.5 34t-33 56z" />
<glyph unicode="&#xdd;" horiz-adv-x="1349" d="M76 1284l2 82h458v-82h-40q-60 0 -83.5 -5t-23.5 -21q0 -10 37 -72l293 -461l358 508q13 21 13 25q0 17 -31 21.5t-103 4.5h-32l-2 82h372v-82h-10q-54 0 -66 -8t-23 -18q-18 -16 -48 -60l-399 -578v-446q0 -54 4.5 -63t11 -16t14.5 -8.5t22 -3.5q16 -3 68 -3h92l-2 -80 h-575l2 80h82q76 0 89 9t16 15t6 16q4 14 4 50v467l-336 522q-50 78 -65.5 97t-35.5 23.5t-69 4.5zM658 1489l106 291h144l-176 -291h-74z" />
<glyph unicode="&#xde;" horiz-adv-x="1222" d="M56 1284l2 82h514v-82h-66q-64 0 -72 -9t-14 -20q-8 -16 -8 -65v-76h126q211 0 269 -16q98 -28 164.5 -82t113.5 -146t47 -208q0 -182 -152 -294q-108 -79 -280 -79q-132 1 -272 39l-16 4v-158q0 -66 11 -75t24 -13q18 -6 71 -6h84l2 -80h-524l-2 80h68q68 0 79 10t15 20 q6 16 6 60v1040q0 54 -10 60.5t-23 9.5q-15 4 -71 4h-86zM412 393q52 -38 203 -38.5t238 79.5t87 232q0 208 -193 308q-116 60 -274 60q-25 0 -37 -6q-24 -12 -24 -90v-545z" />
<glyph unicode="&#xdf;" horiz-adv-x="1050" d="M35 66h21q70 0 79 4t15.5 7t8.5 10q5 14 5 34v583h-115l31 99h86v221q0 110 12 155t27 80.5t35 64.5q112 159 294 159q122 0 194 -90q68 -86 68 -193q0 -66 -96 -163q-72 -72 -98 -103q-52 -64 -53 -125q-1 -89 163 -250l84 -82q8 -8 32 -30.5t32 -30.5t27 -29t26.5 -32 t20 -30.5t17.5 -35.5q14 -42 13.5 -69t-2.5 -44.5t-10 -41t-20 -43.5t-33.5 -39.5t-49.5 -34.5q-63 -32 -130.5 -31.5t-98 5.5t-49.5 11t-26 6q-15 0 -15 -24l2 -23l-61 -2l-37 289l66 6l20 -131q94 -70 186 -70q60 0 93 45q18 24 18 58q1 91 -151 231l-64 61q-2 2 -13 12 t-21 20t-29 32t-32 44t-27 50q-28 58 -28 116.5t13 98t33 70t44 59t48.5 53.5t44.5 48q45 52 45 101.5t-15 95.5t-37.5 74t-51.5 46q-50 33 -92 33t-67.5 -12t-44.5 -36.5t-30.5 -57t-18.5 -64t-11 -66.5q-5 -56 -5 -92v-946q0 -42 10 -50q13 -11 43 -11h33v-66h-356z" />
<glyph unicode="&#xe0;" horiz-adv-x="778" d="M56 135q0 81 54 153t149 115t208 43v124q0 88 -35 117q-33 28 -87.5 28t-86.5 -6.5t-49 -16.5q-35 -20 -45 -40q2 -14 8 -34q12 -43 12 -61t-24 -33.5t-41 -15.5q-47 0 -47 74q0 48 48 109q92 120 310 120q124 0 166 -90q14 -32 14 -74v-383q0 -93 35 -132q33 -36 99 -54 q18 -5 18 -17t-26 -28q-110 -66 -116 -68q-46 33 -66 57q-26 30 -70 86q-41 -56 -108 -93t-116.5 -37t-81.5 9t-60 27q-62 40 -62 121zM156 1290h143l107 -332h-74zM198 187q0 -40 30 -69.5t79 -29.5t76 7.5t42 19t25 27.5q16 26 17 58v191q-125 1 -199 -65 q-70 -62 -70 -139z" />
<glyph unicode="&#xe1;" horiz-adv-x="778" d="M56 135q0 81 54 153t149 115t208 43v124q0 88 -35 117q-33 28 -87.5 28t-86.5 -6.5t-49 -16.5q-35 -20 -45 -40q2 -14 8 -34q12 -43 12 -61t-24 -33.5t-41 -15.5q-47 0 -47 74q0 48 48 109q92 120 310 120q124 0 166 -90q14 -32 14 -74v-383q0 -93 35 -132q33 -36 99 -54 q18 -5 18 -17t-26 -28q-110 -66 -116 -68q-46 33 -66 57q-26 30 -70 86q-41 -56 -108 -93t-116.5 -37t-81.5 9t-60 27q-62 40 -62 121zM198 187q0 -40 30 -69.5t79 -29.5t76 7.5t42 19t25 27.5q16 26 17 58v191q-125 1 -199 -65q-70 -62 -70 -139zM314 958l106 332h144 l-176 -332h-74z" />
<glyph unicode="&#xe2;" horiz-adv-x="778" d="M56 135q0 81 54 153t149 115t208 43v124q0 88 -35 117q-33 28 -87.5 28t-86.5 -6.5t-49 -16.5q-35 -20 -45 -40q2 -14 8 -34q12 -43 12 -61t-24 -33.5t-41 -15.5q-47 0 -47 74q0 48 48 109q92 120 310 120q124 0 166 -90q14 -32 14 -74v-383q0 -93 35 -132q33 -36 99 -54 q18 -5 18 -17t-26 -28q-110 -66 -116 -68q-46 33 -66 57q-26 30 -70 86q-41 -56 -108 -93t-116.5 -37t-81.5 9t-60 27q-62 40 -62 121zM152 958q58 88 164 281h120q9 -16 32.5 -58t34.5 -62.5t30 -52.5q33 -60 67 -108h-118q-30 34 -72 100t-56 85q-14 -22 -39 -62 q-55 -89 -85 -123h-78zM198 187q0 -40 30 -69.5t79 -29.5t76 7.5t42 19t25 27.5q16 26 17 58v191q-125 1 -199 -65q-70 -62 -70 -139z" />
<glyph unicode="&#xe3;" horiz-adv-x="778" d="M56 135q0 81 54 153t149 115t208 43v124q0 88 -35 117q-33 28 -87.5 28t-86.5 -6.5t-49 -16.5q-35 -20 -45 -40q2 -14 8 -34q12 -43 12 -61t-24 -33.5t-41 -15.5q-47 0 -47 74q0 48 48 109q92 120 310 120q124 0 166 -90q14 -32 14 -74v-383q0 -93 35 -132q33 -36 99 -54 q18 -5 18 -17t-26 -28q-110 -66 -116 -68q-46 33 -66 57q-26 30 -70 86q-41 -56 -108 -93t-116.5 -37t-81.5 9t-60 27q-62 40 -62 121zM113 989q1 4 2.5 12t8 30.5t14 42.5t21 45t27.5 43q36 42 83 42t87 -22l62 -33q40 -20 63 -20.5t40 9t29 22.5q24 28 34 58l30 -6 q-18 -98 -74 -156q-35 -36 -77.5 -36t-79.5 16l-63 33q-42 20 -74 20.5t-49 -10.5t-27 -27q-20 -34 -28 -69zM198 187q0 -40 30 -69.5t79 -29.5t76 7.5t42 19t25 27.5q16 26 17 58v191q-125 1 -199 -65q-70 -62 -70 -139z" />
<glyph unicode="&#xe4;" horiz-adv-x="778" d="M56 135q0 81 54 153t149 115t208 43v124q0 88 -35 117q-33 28 -87.5 28t-86.5 -6.5t-49 -16.5q-35 -20 -45 -40q2 -14 8 -34q12 -43 12 -61t-24 -33.5t-41 -15.5q-47 0 -47 74q0 48 48 109q92 120 310 120q124 0 166 -90q14 -32 14 -74v-383q0 -93 35 -132q33 -36 99 -54 q18 -5 18 -17t-26 -28q-110 -66 -116 -68q-46 33 -66 57q-26 30 -70 86q-41 -56 -108 -93t-116.5 -37t-81.5 9t-60 27q-62 40 -62 121zM132 1121.5q0 22.5 35.5 55.5t56.5 33t51.5 -36t30.5 -58t-35 -53t-54.5 -31t-52 33.5t-32.5 56zM198 187q0 -40 30 -69.5t79 -29.5 t76 7.5t42 19t25 27.5q16 26 17 58v191q-125 1 -199 -65q-70 -62 -70 -139zM430 1122q0 22 37 55t58 33t50 -36t29 -58t-34.5 -53t-54 -31t-52.5 34t-33 56z" />
<glyph unicode="&#xe5;" horiz-adv-x="778" d="M56 135q0 81 54 153t149 115t208 43v124q0 88 -35 117q-33 28 -87.5 28t-86.5 -6.5t-49 -16.5q-35 -20 -45 -40q2 -14 8 -34q12 -43 12 -61t-24 -33.5t-41 -15.5q-47 0 -47 74q0 48 48 109q92 120 310 120q124 0 166 -90q14 -32 14 -74v-383q0 -93 35 -132q33 -36 99 -54 q18 -5 18 -17t-26 -28q-110 -66 -116 -68q-46 33 -66 57q-26 30 -70 86q-41 -56 -108 -93t-116.5 -37t-81.5 9t-60 27q-62 40 -62 121zM198 187q0 -40 30 -69.5t79 -29.5t76 7.5t42 19t25 27.5q16 26 17 58v191q-125 1 -199 -65q-70 -62 -70 -139zM207 1092q0 50 23.5 90 t62.5 67t92 27t103.5 -50t50.5 -113.5t-47.5 -111t-113.5 -47.5t-118.5 44t-52.5 94zM276 1091q0 -27 28 -51t69 -24q94 0 94 96q1 75 -63 94q-15 4 -37.5 4t-43 -12t-30 -31t-13.5 -34t-4 -42z" />
<glyph unicode="&#xe6;" horiz-adv-x="1300" d="M65.5 116.5q0.5 73.5 40.5 134.5t106 103q142 92 320 92l2 70q0 86 -11 112t-23 41.5t-28 24.5q-37 21 -86 21t-81 -6.5t-49 -16.5q-36 -20 -45 -40q2 -12 8 -34q10 -40 10.5 -59.5t-23.5 -35t-40 -15.5q-47 0 -47 74q0 51 37 97q36 47 70 73q80 62 200 61 q154 1 192 -145q8 -34 10 -40q26 78 96 133.5t135.5 55.5t111.5 -13.5t81.5 -35.5t65 -50t48.5 -58q40 -61 40 -90.5t-12 -37.5t-20 -8l-508 -57v-33q0 -230 179 -300q55 -22 115 -22t109.5 14t77.5 30q74 42 86 42q18 0 18.5 -18t-16.5 -41.5t-50 -52t-77 -53.5 q-101 -60 -212 -59.5t-189.5 54t-120.5 134.5q-72 -145 -224 -184q-42 -11 -83 -11t-76 9.5t-66 26.5q-72 40 -71.5 113.5zM215 173q0 -40 31.5 -64.5t70.5 -24.5t71.5 7t56 18t44.5 24t35 25q30 27 44 49q-30 114 -34 184q-125 1 -223 -71q-96 -70 -96 -147zM674 540 l342 40q-36 124 -117 158q-22 10 -47 10q-64 0 -113 -55t-65 -153z" />
<glyph unicode="&#xe7;" horiz-adv-x="825" d="M49 364.5q0 75.5 15 139.5t46.5 122t75.5 101q96 94 240 94q186 0 291 -101q22 -22 22.5 -35.5t-16.5 -26t-40 -19.5q-48 -14 -67.5 -14.5t-40.5 11.5t-42.5 29t-43.5 34q-54 40 -99.5 40.5t-80.5 -22.5t-56 -57t-35 -78q-24 -76 -24 -154t19.5 -135.5t50 -93t70.5 -59.5 q72 -43 148 -43.5t127 7.5t76 17t45 17t28 8q16 0 16 -18t-29 -43t-73 -49q-108 -58 -230 -62l-32 -109l34 2q92 0 144 -26q92 -46 92 -130q0 -114 -141 -151q-39 -10 -81 -10q-84 0 -132 26l42 49q62 -20 104 -20.5t69 26.5t27 65t-14 58t-37 31q-45 20 -86 20.5t-56 -1.5 l-25 34l46 138q-260 16 -326 241q-21 72 -21 147.5z" />
<glyph unicode="&#xe8;" horiz-adv-x="845" d="M49 375q0 198 105 321q104 121 258 121q174 0 284 -139q56 -70 56 -123q0 -14 -12 -22.5t-21 -8.5l-514 -61l-2 -29q0 -228 183 -300q55 -22 110 -22t96.5 10t69.5 24.5t51 28.5q56 34 65 34q18 0 18 -18.5t-17 -43t-51 -54t-77 -56.5q-103 -63 -227 -63q-168 0 -269 108 q-106 116 -106 293zM207 1290h143l107 -332h-74zM209 534l352 46q-13 46 -42 83t-45 51q-38 33 -92 33.5t-105.5 -57.5t-67.5 -156z" />
<glyph unicode="&#xe9;" horiz-adv-x="845" d="M49 375q0 198 105 321q104 121 258 121q174 0 284 -139q56 -70 56 -123q0 -14 -12 -22.5t-21 -8.5l-514 -61l-2 -29q0 -228 183 -300q55 -22 110 -22t96.5 10t69.5 24.5t51 28.5q56 34 65 34q18 0 18 -18.5t-17 -43t-51 -54t-77 -56.5q-103 -63 -227 -63q-168 0 -269 108 q-106 116 -106 293zM209 534l352 46q-13 46 -42 83t-45 51q-38 33 -92 33.5t-105.5 -57.5t-67.5 -156zM365 958l106 332h144l-176 -332h-74z" />
<glyph unicode="&#xea;" horiz-adv-x="845" d="M49 375q0 198 105 321q104 121 258 121q174 0 284 -139q56 -70 56 -123q0 -14 -12 -22.5t-21 -8.5l-514 -61l-2 -29q0 -228 183 -300q55 -22 110 -22t96.5 10t69.5 24.5t51 28.5q56 34 65 34q18 0 18 -18.5t-17 -43t-51 -54t-77 -56.5q-103 -63 -227 -63q-168 0 -269 108 q-106 116 -106 293zM203 958q58 88 164 281h120q9 -16 32.5 -58t34.5 -62.5t30 -52.5q33 -60 67 -108h-118q-30 34 -72 100t-56 85q-14 -22 -39 -62q-55 -89 -85 -123h-78zM209 534l352 46q-13 46 -42 83t-45 51q-38 33 -92 33.5t-105.5 -57.5t-67.5 -156z" />
<glyph unicode="&#xeb;" horiz-adv-x="845" d="M49 375q0 198 105 321q104 121 258 121q174 0 284 -139q56 -70 56 -123q0 -14 -12 -22.5t-21 -8.5l-514 -61l-2 -29q0 -228 183 -300q55 -22 110 -22t96.5 10t69.5 24.5t51 28.5q56 34 65 34q18 0 18 -18.5t-17 -43t-51 -54t-77 -56.5q-103 -63 -227 -63q-168 0 -269 108 q-106 116 -106 293zM182 1121.5q0 22.5 36 55.5t57 33t51 -36t30 -58t-34 -53t-54 -31t-53 33.5t-33 56zM209 534l352 46q-13 46 -42 83t-45 51q-38 33 -92 33.5t-105.5 -57.5t-67.5 -156zM482 1122q0 22 36 55t57.5 33t51 -36t29.5 -58t-35 -53t-55 -31t-52 34t-32 56z" />
<glyph unicode="&#xec;" horiz-adv-x="542" d="M54 1290h143l107 -332h-74zM56 770q152 24 288 62v-711q0 -39 18 -46q24 -9 109 -9h37v-66h-444v66h18q94 0 103 8q15 14 15 38v548q0 39 -6 52t-29 13q-23 -1 -107 -17z" />
<glyph unicode="&#xed;" horiz-adv-x="542" d="M56 770q152 24 288 62v-711q0 -39 18 -46q24 -9 109 -9h37v-66h-444v66h18q94 0 103 8q15 14 15 38v548q0 39 -6 52t-29 13q-23 -1 -107 -17zM212 958l106 332h144l-176 -332h-74z" />
<glyph unicode="&#xee;" horiz-adv-x="542" d="M50 958q58 88 164 281h120q9 -16 32.5 -58t34.5 -62.5t30 -52.5q33 -60 67 -108h-118q-30 34 -72 100t-56 85q-14 -22 -39 -62q-55 -89 -85 -123h-78zM56 770q152 24 288 62v-711q0 -39 18 -46q24 -9 109 -9h37v-66h-444v66h18q94 0 103 8q15 14 15 38v548q0 39 -6 52 t-29 13q-23 -1 -107 -17z" />
<glyph unicode="&#xef;" horiz-adv-x="542" d="M50 1121.5q0 22.5 35.5 55.5t56.5 33t51.5 -36t30.5 -58t-35 -53t-54.5 -31t-52 33.5t-32.5 56zM56 770q152 24 288 62v-711q0 -39 18 -46q24 -9 109 -9h37v-66h-444v66h18q94 0 103 8q15 14 15 38v548q0 39 -6 52t-29 13q-23 -1 -107 -17zM310 1121.5q0 22.5 35.5 55.5 t56.5 33t51.5 -36t30.5 -58t-35 -53t-54.5 -31t-52 33.5t-32.5 56z" />
<glyph unicode="&#xf0;" horiz-adv-x="942" d="M51 391q0 208 144 335q99 87 247 87q111 -1 198 -51q12 -7 34 -20q22 -14 30 -19q-16 117 -56 201q-68 142 -100 190l-16 22q-25 -12 -61 -29t-57 -27q-45 -22 -111 -58l-71 76l239 112q-99 138 -289 258h144q82 -45 150 -109.5t100 -100.5q186 84 206 90l74 -68 q-80 -28 -144 -59t-75 -35q254 -350 254 -748q0 -202 -108 -330q-117 -138 -293 -138q-250 0 -370 182q-68 104 -69 239zM215 433.5q0 -70.5 12.5 -123.5t38.5 -99.5t61 -81.5q76 -76 187 -76q184 0 222 263q8 56 8 106q0 78 -16 166l-5 28q-6 5 -15.5 14t-38.5 31.5 t-59 38.5q-78 45 -150 45.5t-128 -45.5t-86.5 -121t-30.5 -145.5z" />
<glyph unicode="&#xf1;" horiz-adv-x="948" d="M35 66h44.5t29.5 1.5t16 2.5t10.5 6t7 8t3.5 12.5t2 16.5v509q0 66 -6 84q-6 19 -26 19q-6 -1 -77 -17v64l252 52q-7 -80 -7 -146q7 3 28.5 18.5t48.5 33.5t62 37q80 42 145.5 42t96.5 -10.5t51.5 -25.5t35 -43.5t21.5 -52t11 -63.5q4 -50 4 -135v-352q0 -44 23 -52.5 t103 -8.5l-2 -66h-382l-2 66h48q54 0 59 10q10 18 10 51v411q0 86 -31.5 121t-111 35t-211.5 -66v-514q0 -26 11 -34t18.5 -9t21.5 -3q18 -2 72 -2h26l-4 -66h-399zM229 989q1 4 2.5 12t8 30.5t14 42.5t21 45t27.5 43q36 42 83 42t87 -22l62 -33q40 -20 63 -20.5t40 9 t29 22.5q24 28 34 58l30 -6q-18 -98 -74 -156q-35 -36 -77.5 -36t-79.5 16l-63 33q-42 20 -74 20.5t-49 -10.5t-27 -27q-20 -34 -28 -69z" />
<glyph unicode="&#xf2;" horiz-adv-x="937" d="M51 400q0 64 15 125t47.5 115t78.5 94q102 87 264 87q202 0 314 -118q117 -122 117 -326q0 -174 -114 -290q-117 -117 -312 -117q-231 0 -345 188q-65 108 -65 242zM215 457q0 -65 12 -122t35.5 -108.5t56 -91t76 -63t92.5 -23.5t88 18.5t65 50t43 74.5q32 80 32 180.5 t-22.5 172t-60.5 116.5q-80 91 -194 91q-92 0 -156 -76q-67 -80 -67 -219zM252 1290h143l107 -332h-74z" />
<glyph unicode="&#xf3;" horiz-adv-x="937" d="M51 400q0 64 15 125t47.5 115t78.5 94q102 87 264 87q202 0 314 -118q117 -122 117 -326q0 -174 -114 -290q-117 -117 -312 -117q-231 0 -345 188q-65 108 -65 242zM215 457q0 -65 12 -122t35.5 -108.5t56 -91t76 -63t92.5 -23.5t88 18.5t65 50t43 74.5q32 80 32 180.5 t-22.5 172t-60.5 116.5q-80 91 -194 91q-92 0 -156 -76q-67 -80 -67 -219zM410 958l106 332h144l-176 -332h-74z" />
<glyph unicode="&#xf4;" horiz-adv-x="937" d="M51 400q0 64 15 125t47.5 115t78.5 94q102 87 264 87q202 0 314 -118q117 -122 117 -326q0 -174 -114 -290q-117 -117 -312 -117q-231 0 -345 188q-65 108 -65 242zM215 457q0 -65 12 -122t35.5 -108.5t56 -91t76 -63t92.5 -23.5t88 18.5t65 50t43 74.5q32 80 32 180.5 t-22.5 172t-60.5 116.5q-80 91 -194 91q-92 0 -156 -76q-67 -80 -67 -219zM248 958q58 88 164 281h120q9 -16 32.5 -58t34.5 -62.5t30 -52.5q33 -60 67 -108h-118q-30 34 -72 100t-56 85q-14 -22 -39 -62q-55 -89 -85 -123h-78z" />
<glyph unicode="&#xf5;" horiz-adv-x="937" d="M51 400q0 64 15 125t47.5 115t78.5 94q102 87 264 87q202 0 314 -118q117 -122 117 -326q0 -174 -114 -290q-117 -117 -312 -117q-231 0 -345 188q-65 108 -65 242zM209 989q1 4 2.5 12t8 30.5t14 42.5t21 45t27.5 43q36 42 83 42t87 -22l62 -33q40 -20 63 -20.5t40 9 t29 22.5q24 28 34 58l30 -6q-18 -98 -74 -156q-35 -36 -77.5 -36t-79.5 16l-63 33q-42 20 -74 20.5t-49 -10.5t-27 -27q-20 -34 -28 -69zM215 457q0 -65 12 -122t35.5 -108.5t56 -91t76 -63t92.5 -23.5t88 18.5t65 50t43 74.5q32 80 32 180.5t-22.5 172t-60.5 116.5 q-80 91 -194 91q-92 0 -156 -76q-67 -80 -67 -219z" />
<glyph unicode="&#xf6;" horiz-adv-x="937" d="M51 400q0 64 15 125t47.5 115t78.5 94q102 87 264 87q202 0 314 -118q117 -122 117 -326q0 -174 -114 -290q-117 -117 -312 -117q-231 0 -345 188q-65 108 -65 242zM215 457q0 -65 12 -122t35.5 -108.5t56 -91t76 -63t92.5 -23.5t88 18.5t65 50t43 74.5q32 80 32 180.5 t-22.5 172t-60.5 116.5q-80 91 -194 91q-92 0 -156 -76q-67 -80 -67 -219zM228 1121.5q0 22.5 35.5 55.5t56.5 33t51.5 -36t30.5 -58t-35 -53t-54.5 -31t-52 33.5t-32.5 56zM526 1122q0 22 37 55t58 33t50 -36t29 -58t-34.5 -53t-54 -31t-52.5 34t-33 56z" />
<glyph unicode="&#xf7;" horiz-adv-x="1482" d="M144 422v118h1196v-118h-1196zM616 159.5q0 50.5 37.5 87.5t88 37t86.5 -37t36 -87.5t-36 -86.5t-87 -36t-88 36t-37 86.5zM616 803q0 51 37 87t88 36t87 -36t36 -87t-36 -88t-86.5 -37t-88 37t-37.5 88z" />
<glyph unicode="&#xf8;" horiz-adv-x="935" d="M49 380q0 84 15 145t47.5 115t78.5 94q102 87 264 87q111 -1 193 -35l43 74l56 -32l-42 -72q136 -88 172 -279q9 -50 8.5 -118t-30.5 -142.5t-84 -129.5q-116 -117 -311 -117q-101 0 -185 40l-71 -124l-57 30l71 127q-81 61 -124.5 157t-43.5 180zM213 445 q0 -151 78 -275l303 524q-66 58 -158 58t-156 -76q-67 -80 -67 -231zM336 116q68 -68 150 -67q138 0 195 143q31 80 31 191q0 164 -71 262z" />
<glyph unicode="&#xf9;" horiz-adv-x="946" d="M35 731v61q157 14 249 32v-512q0 -131 44 -175q40 -41 126 -41q126 0 185 78v500q0 38 -9.5 49.5t-27 11.5t-39.5 -2q-52 -5 -55 -8l-6 63q114 8 280 36v-596q0 -136 10 -148q11 -14 26.5 -14t93.5 22v-66q-73 -15 -151.5 -37t-100.5 -28q-3 73 -15 145 q-76 -83 -181 -118q-42 -14 -83 -14t-76 9t-60 25t-43 40t-30 50t-18 59q-12 55 -12 129v404q0 31 -9 41.5t-31 10.5zM248 1290h143l107 -332h-74z" />
<glyph unicode="&#xfa;" horiz-adv-x="946" d="M35 731v61q157 14 249 32v-512q0 -131 44 -175q40 -41 126 -41q126 0 185 78v500q0 38 -9.5 49.5t-27 11.5t-39.5 -2q-52 -5 -55 -8l-6 63q114 8 280 36v-596q0 -136 10 -148q11 -14 26.5 -14t93.5 22v-66q-73 -15 -151.5 -37t-100.5 -28q-3 73 -15 145 q-76 -83 -181 -118q-42 -14 -83 -14t-76 9t-60 25t-43 40t-30 50t-18 59q-12 55 -12 129v404q0 31 -9 41.5t-31 10.5zM406 958l106 332h144l-176 -332h-74z" />
<glyph unicode="&#xfb;" horiz-adv-x="946" d="M35 731v61q157 14 249 32v-512q0 -131 44 -175q40 -41 126 -41q126 0 185 78v500q0 38 -9.5 49.5t-27 11.5t-39.5 -2q-52 -5 -55 -8l-6 63q114 8 280 36v-596q0 -136 10 -148q11 -14 26.5 -14t93.5 22v-66q-73 -15 -151.5 -37t-100.5 -28q-3 73 -15 145 q-76 -83 -181 -118q-42 -14 -83 -14t-76 9t-60 25t-43 40t-30 50t-18 59q-12 55 -12 129v404q0 31 -9 41.5t-31 10.5zM244 958q58 88 164 281h120q9 -16 32.5 -58t34.5 -62.5t30 -52.5q33 -60 67 -108h-118q-30 34 -72 100t-56 85q-14 -22 -39 -62q-55 -89 -85 -123h-78z " />
<glyph unicode="&#xfc;" horiz-adv-x="946" d="M35 731v61q157 14 249 32v-512q0 -131 44 -175q40 -41 126 -41q126 0 185 78v500q0 38 -9.5 49.5t-27 11.5t-39.5 -2q-52 -5 -55 -8l-6 63q114 8 280 36v-596q0 -136 10 -148q11 -14 26.5 -14t93.5 22v-66q-73 -15 -151.5 -37t-100.5 -28q-3 73 -15 145 q-76 -83 -181 -118q-42 -14 -83 -14t-76 9t-60 25t-43 40t-30 50t-18 59q-12 55 -12 129v404q0 31 -9 41.5t-31 10.5zM224 1121.5q0 22.5 35.5 55.5t56.5 33t51.5 -36t30.5 -58t-35 -53t-54.5 -31t-52 33.5t-32.5 56zM522 1122q0 22 37 55t58 33t50 -36t29 -58t-34.5 -53 t-54 -31t-52.5 34t-33 56z" />
<glyph unicode="&#xfd;" horiz-adv-x="960" d="M14 -436.5q0 41.5 22 63t56 21.5l60 -4q32 0 83.5 69.5t141.5 243.5l61 119l-256 550q-6 12 -14 31.5t-11 26t-10 18.5t-9.5 15t-11 9t-14 7t-18 3t-24.5 2h-31l-4 65h391l-4 -65h-35q-40 0 -55.5 -5.5t-15.5 -18t2.5 -22.5t5 -17t8.5 -20t8 -18l174 -391l129 290 q68 149 67.5 170t-19.5 26.5t-71 5.5h-28v65h334v-65h-50q-28 0 -37 -3t-13.5 -4t-10.5 -7.5t-8.5 -9.5t-8.5 -14.5t-9 -17.5q-11 -26 -23 -54l-312 -688q-188 -414 -292 -458q-28 -12 -65.5 -12t-60 26t-22.5 67.5zM443 958l106 332h144l-176 -332h-74z" />
<glyph unicode="&#xfe;" horiz-adv-x="1036" d="M41 1440q174 24 301 47v-831q96 96 213 135q48 16 92 16q95 0 173.5 -54.5t122.5 -145t44 -205.5t-48.5 -214t-137.5 -155.5t-205 -56.5q-128 0 -222 25l-32 9v-424q0 -35 30 -43t132 -8h30l-2 -65h-470l-2 65q112 -1 122 9q16 14 16 40v1704q0 66 -6 84t-26.5 18 t-120.5 -20zM342 112q104 -70 248 -69q158 0 221 150q30 72 30.5 147.5t-22.5 138.5t-61 108q-83 99 -203 99q-102 0 -201 -84l-12 -10v-480z" />
<glyph unicode="&#xff;" horiz-adv-x="960" d="M14 -436.5q0 41.5 22 63t56 21.5l60 -4q32 0 83.5 69.5t141.5 243.5l61 119l-256 550q-6 12 -14 31.5t-11 26t-10 18.5t-9.5 15t-11 9t-14 7t-18 3t-24.5 2h-31l-4 65h391l-4 -65h-35q-40 0 -55.5 -5.5t-15.5 -18t2.5 -22.5t5 -17t8.5 -20t8 -18l174 -391l129 290 q68 149 67.5 170t-19.5 26.5t-71 5.5h-28v65h334v-65h-50q-28 0 -37 -3t-13.5 -4t-10.5 -7.5t-8.5 -9.5t-8.5 -14.5t-9 -17.5q-11 -26 -23 -54l-312 -688q-188 -414 -292 -458q-28 -12 -65.5 -12t-60 26t-22.5 67.5zM260 1121.5q0 22.5 36 55.5t57 33t51 -36t30 -58t-34 -53 t-54 -31t-53 33.5t-33 56zM560 1122q0 22 36 55t57.5 33t51 -36t29.5 -58t-35 -53t-55 -31t-52 34t-32 56z" />
<glyph unicode="&#x152;" horiz-adv-x="2158" d="M112 642.5q0 128.5 21 219t58.5 163t89 133t113.5 104.5q64 43 134 73q138 59 296 59q90 0 195 -14t226 -14h760q3 -118 13 -322l-82 -4q-7 189 -19.5 211.5t-30.5 24.5t-100 2h-348q-84 0 -96 -10t-14 -15t-4 -18q-3 -13 -3 -53v-285q0 -60 6 -66.5t14 -10.5q9 -5 43 -5 h312q53 0 61.5 10.5t11.5 23.5q5 19 5 65v82l76 -2v-490h-76v136q0 12 -1 25t-2 20t-4 14.5t-4 11t-7 7t-9 4.5t-12 2t-15 1h-328q-52 -1 -60 -11q-12 -14 -11 -52v-484q0 -54 11.5 -69t51.5 -15q410 4 488 10.5t89 17.5t17 27.5t33 178.5l70 -10l-51 -318h-762 q-34 0 -214 -16.5t-263 -16.5t-170 20.5t-156.5 57.5t-127 88t-99.5 112t-70 131q-56 138 -56 266.5zM295 742q0 -88 16.5 -170t48.5 -158.5t81 -141.5t110 -113q132 -104 302 -103.5t302 63.5v1124q-189 67 -375 67q-144 0 -269 -84q-152 -102 -199 -316q-17 -80 -17 -168z " />
<glyph unicode="&#x153;" horiz-adv-x="1519" d="M53 406q0 59 14.5 119.5t46.5 114.5t79 94q101 87 247.5 87t235.5 -57q88 -58 116 -152q44 96 123 150.5t156.5 54.5t134.5 -20.5t95.5 -51.5t66.5 -67q56 -70 56 -123q0 -15 -11 -23t-21 -8l-516 -61v-29q0 -229 182 -300q55 -22 109.5 -22t96.5 10t71 24.5t51 28.5 q56 34 66 34q16 0 16 -17.5t-11 -36.5t-31 -43t-51.5 -48t-68.5 -44q-84 -46 -196 -46q-236 0 -312 212q-41 -104 -131 -160t-206 -56q-191 0 -307 137q-100 119 -101 299zM215 457q0 -65 12 -122t35.5 -108.5t56 -91t76 -63t92.5 -23.5t88 18.5t65 50t43 74.5 q32 80 32 180.5t-22.5 172t-60.5 116.5q-80 91 -194 91q-92 0 -156 -76q-67 -80 -67 -219zM882 534l353 46q-13 46 -42 83t-45 51q-38 33 -92 33.5t-106 -57.5t-68 -156z" />
<glyph unicode="&#x178;" horiz-adv-x="1349" d="M76 1284l2 82h458v-82h-40q-60 0 -83.5 -5t-23.5 -21q0 -10 37 -72l293 -461l358 508q13 21 13 25q0 17 -31 21.5t-103 4.5h-32l-2 82h372v-82h-10q-54 0 -66 -8t-23 -18q-18 -16 -48 -60l-399 -578v-446q0 -54 4.5 -63t11 -16t14.5 -8.5t22 -3.5q16 -3 68 -3h92l-2 -80 h-575l2 80h82q76 0 89 9t16 15t6 16q4 14 4 50v467l-336 522q-50 78 -65.5 97t-35.5 23.5t-69 4.5zM469 1658.5q0 22.5 36.5 55.5t57.5 33t50.5 -36t29.5 -57.5t-34.5 -53t-54.5 -31.5t-52.5 33.5t-32.5 56zM771 1658.5q0 22.5 35.5 55.5t56.5 33t51.5 -36.5t30.5 -57.5 t-34.5 -52.5t-54.5 -31.5t-52.5 33.5t-32.5 56z" />
<glyph unicode="&#x2c6;" horiz-adv-x="798" d="M190 958q58 88 164 281h120q9 -16 32.5 -58t34.5 -62.5t30 -52.5q33 -60 67 -108h-118q-30 34 -72 100t-56 85q-14 -22 -39 -62q-55 -89 -85 -123h-78z" />
<glyph unicode="&#x2dc;" horiz-adv-x="798" d="M151 989q1 4 2.5 12t8 30.5t14 42.5t21 45t27.5 43q36 42 83 42t87 -22l62 -33q40 -20 63 -20.5t40 9t29 22.5q24 28 34 58l30 -6q-18 -98 -74 -156q-35 -36 -77.5 -36t-79.5 16l-63 33q-42 20 -74 20.5t-49 -10.5t-27 -27q-20 -34 -28 -69z" />
<glyph unicode="&#x2000;" horiz-adv-x="908" />
<glyph unicode="&#x2001;" horiz-adv-x="1817" />
<glyph unicode="&#x2002;" horiz-adv-x="908" />
<glyph unicode="&#x2003;" horiz-adv-x="1817" />
<glyph unicode="&#x2004;" horiz-adv-x="605" />
<glyph unicode="&#x2005;" horiz-adv-x="454" />
<glyph unicode="&#x2006;" horiz-adv-x="302" />
<glyph unicode="&#x2007;" horiz-adv-x="302" />
<glyph unicode="&#x2008;" horiz-adv-x="227" />
<glyph unicode="&#x2009;" horiz-adv-x="363" />
<glyph unicode="&#x200a;" horiz-adv-x="100" />
<glyph unicode="&#x2010;" horiz-adv-x="645" d="M70 494v122l506 150v-125z" />
<glyph unicode="&#x2011;" horiz-adv-x="645" d="M70 494v122l506 150v-125z" />
<glyph unicode="&#x2012;" horiz-adv-x="645" d="M70 494v122l506 150v-125z" />
<glyph unicode="&#x2013;" horiz-adv-x="1024" d="M0 540v88h1024v-88h-1024z" />
<glyph unicode="&#x2014;" horiz-adv-x="2048" d="M0 540v88h2048v-88h-2048z" />
<glyph unicode="&#x2018;" horiz-adv-x="497" d="M142 1104v33q0 28 17.5 73t44 77t58.5 57q61 48 94 48t33 -20t-31.5 -40.5t-49.5 -36.5q-44 -38 -44 -105q0 -48 19 -63t33 -22t26 -10q26 -8 26 -22q0 -3 -8 -19l-51 -73q-14 -22 -30.5 -22.5t-55.5 23.5t-48 33q-31 29 -33 89z" />
<glyph unicode="&#x2019;" horiz-adv-x="497" d="M142 978q0 20 23 34t40 27.5t31 28.5q33 34 32.5 75.5t-8 59t-19 26.5t-25.5 16t-25 11q-27 8 -27 22q0 2 8 18l49 72q16 24 29.5 24t54.5 -25t51 -33q31 -28 33 -88v-13q0 -111 -89 -201q-43 -43 -80.5 -58.5t-57.5 -15.5t-20 20z" />
<glyph unicode="&#x201a;" horiz-adv-x="497" d="M142 -240q0 20 23 34t40 27t31 28q33 35 32.5 76t-8 59t-19 27t-25.5 15t-25 10q-27 8 -27 22q0 4 8 20l49 72q14 22 30.5 22t55.5 -24t49 -32q31 -28 33 -89v-13q0 -111 -89 -200q-43 -44 -80.5 -59t-57.5 -15t-20 20z" />
<glyph unicode="&#x201c;" horiz-adv-x="847" d="M142 1104v33q0 28 17.5 73t44 77t58.5 57q61 48 94 48t33 -20t-31.5 -40.5t-49.5 -36.5q-44 -38 -44 -105q0 -48 19 -63t33 -22t26 -10q26 -8 26 -22q0 -3 -8 -19l-51 -73q-14 -22 -30.5 -22.5t-55.5 23.5t-48 33q-31 29 -33 89zM492 1104v33q0 28 17.5 73t44 77t58.5 57 q61 48 94 48t33 -20t-31.5 -40.5t-49.5 -36.5q-44 -38 -44 -105q0 -48 19 -63t33 -22t26 -10q26 -8 26 -22q0 -3 -8 -19l-51 -73q-14 -22 -30.5 -22.5t-55.5 23.5t-48 33q-31 29 -33 89z" />
<glyph unicode="&#x201d;" horiz-adv-x="845" d="M142 978q0 20 23 34t40 27.5t31 28.5q33 34 32.5 75.5t-8 59t-19 26.5t-25.5 16t-25 11q-27 8 -27 22q0 2 8 18l49 72q16 24 29.5 24t54.5 -25t51 -33q31 -28 33 -88v-13q0 -111 -89 -201q-43 -43 -80.5 -58.5t-57.5 -15.5t-20 20zM490 978q0 20 23 34t40 27.5t31 28.5 q33 34 32.5 75.5t-8 59t-19 26.5t-25.5 16t-25 11q-27 8 -27 22q0 2 8 18l49 72q16 24 29.5 24t54.5 -25t51 -33q31 -28 33 -88v-13q0 -111 -89 -201q-43 -43 -80.5 -58.5t-57.5 -15.5t-20 20z" />
<glyph unicode="&#x201e;" horiz-adv-x="845" d="M142 -240q0 20 23 34t40 27t31 28q33 35 32.5 76t-8 59t-19 27t-25.5 15t-25 10q-27 8 -27 22q0 4 8 20l49 72q14 22 30.5 22t55.5 -24t49 -32q31 -28 33 -89v-13q0 -111 -89 -200q-43 -44 -80.5 -59t-57.5 -15t-20 20zM490 -240q0 20 23 34t40 27t31 28q33 35 32.5 76 t-8 59t-19 27t-25.5 15t-25 10q-27 8 -27 22q0 4 8 20l49 72q14 22 30.5 22t55.5 -24t49 -32q31 -28 33 -89v-13q0 -111 -89 -200q-43 -44 -80.5 -59t-57.5 -15t-20 20z" />
<glyph unicode="&#x2022;" horiz-adv-x="854" d="M180 616q0 67 33 124t89.5 90.5t123 33.5t123.5 -32.5t91 -89t34 -124t-33 -124.5t-89 -90.5t-124 -33.5t-125 33t-90 89.5t-33 123.5z" />
<glyph unicode="&#x2026;" horiz-adv-x="1376" d="M127 82q0 24 40 59t63.5 35t57.5 -40.5t34 -64t-39.5 -57.5t-61 -34t-58 39t-36.5 63zM586 82q0 24 40 59t63.5 35t57.5 -40.5t34 -64t-39.5 -57.5t-61 -34t-58 39t-36.5 63zM1045 82q0 24 40 59t63.5 35t57.5 -40.5t34 -64t-39.5 -57.5t-61 -34t-58 39t-36.5 63z" />
<glyph unicode="&#x202f;" horiz-adv-x="363" />
<glyph unicode="&#x2039;" horiz-adv-x="507" d="M82 442l311 273l33 -37l-190 -236l190 -233l-33 -39z" />
<glyph unicode="&#x203a;" horiz-adv-x="507" d="M82 209l190 233l-190 236l32 37l312 -273l-312 -272z" />
<glyph unicode="&#x205f;" horiz-adv-x="454" />
<glyph unicode="&#x20ac;" horiz-adv-x="1200" d="M35 555l39 97h135q53 178 191 284q146 112 315 112q118 0 210.5 -37t184.5 -122q-15 -39 -45 -101q-36 63 -138 117q-90 47 -204 47q-149 0 -270 -95q-93 -73 -141 -205h698l-39 -97h-680l-2 -39l2 -41h645l-41 -98h-583q58 -174 225 -256q92 -45 159.5 -45t109.5 8 t73 19t62 29t48.5 30t37.5 30l38 40l6 -2v-126q-154 -124 -344 -124q-197 0 -347 125q-118 100 -171 272h-168l39 98h112v80h-157z" />
<glyph unicode="&#xe000;" horiz-adv-x="805" d="M0 0v805h805v-805h-805z" />
<glyph unicode="&#xfb01;" horiz-adv-x="1011" d="M35 704l25 99h124v264q0 203 154 333q102 86 242 85q78 0 136 -23.5t58 -57t-38 -74t-72 -40.5q-10 0 -36 29t-45 47q-44 41 -86.5 41t-71.5 -21.5t-47 -54.5t-29 -76q-21 -77 -21 -161v-291h227q148 1 258 29v-711q0 -38 11.5 -46.5t57.5 -8.5h56v-66h-398v66h42 q52 0 70 8t18 38v519q0 55 -18 64t-116 9h-208v-581q0 -39 10 -47q14 -10 70 -10h67v-66h-426v66h49q54 0 70 9.5t16 45.5v583h-149z" />
<glyph unicode="&#xfb02;" horiz-adv-x="983" d="M35 704l25 99h124v221q0 98 9 136t18.5 68t25 57t35.5 54q40 55 111.5 99.5t153.5 44.5q83 -1 129 -21q28 4 81 14t64 11v-1366q0 -37 15 -45q20 -10 84 -10h38v-66h-416l2 66h44q53 0 71.5 9.5t18.5 45.5v1200q-8 -7 -18 -17t-16 -15q-14 -13 -26 -13t-21 13t-18 31 t-21 36q-26 44 -61 43.5t-59.5 -16t-40 -38.5t-27.5 -56t-18 -63t-10 -64q-4 -48 -4 -89v-270h229l-23 -99h-206v-598q0 -32 30 -38q15 -2 36 -2h79l2 -66h-422l3 66h58q42 0 56 10t14 45v583h-149z" />
<glyph unicode="&#xfb03;" horiz-adv-x="1490" d="M35 704l25 99h124v161q0 174 39 263q35 79 105 125q116 78 264 78q76 0 124 -20t48 -54q0 -6 -4 -18q112 148 299 147q78 0 136.5 -23.5t58.5 -57t-38.5 -74t-72.5 -40.5q-10 0 -35.5 29t-44.5 47q-44 41 -86.5 41t-72 -22t-47 -56.5t-29.5 -79.5q-21 -81 -21 -176v-270 h227q150 1 260 29v-711q0 -39 11 -47t57 -8h55v-66h-397v66h45q51 0 68.5 8t17.5 38v519q0 55 -17 64t-116 9h-211v-577q0 -42 9 -49q10 -8 22 -10q16 -2 59 -2h59v-66h-426v66h54q59 0 66 9q14 17 14 46v583h-336v-596q0 -34 18 -38q22 -4 58 -4h63l2 -66h-420v66h59 q44 0 60 10t16 45v583h-149zM328 803h336v235q0 120 48 228q-36 -43 -53 -43.5t-28 12.5t-22 31t-25 36q-34 44 -78 44t-71 -13t-44.5 -32t-30 -52t-18.5 -62t-10 -75q-4 -68 -4 -158v-151z" />
<glyph unicode="&#xfb04;" horiz-adv-x="1464" d="M35 704l25 99h124v161q0 174 39 263q33 78 103 124q118 79 256 79q76 0 124 -20t48 -54q0 -6 -4 -18q107 146 284 145q66 -1 113 -21q28 4 81.5 14t63.5 11v-1366q0 -37 15 -45q17 -10 81 -10h40l2 -66h-416l2 66h43q53 0 71.5 9.5t18.5 45.5v1200q-8 -7 -18 -17l-15 -15 q-14 -13 -26 -13t-21.5 13t-19 31t-21.5 36q-27 44 -62.5 43.5t-59.5 -16t-39.5 -38.5t-27 -56t-17.5 -63t-10 -64q-5 -48 -5 -89v-270h231l-24 -99h-207v-577q0 -42 12 -51q11 -10 61 -10h72l2 -66h-420v66h60q44 0 57 8t13 42v588h-336v-596q0 -34 22 -38q26 -4 68 -4h49 l2 -66h-420v66h59q43 0 59.5 10t16.5 45v583h-149zM328 803h336v221q0 112 12.5 155t21 63t8.5 24q-36 -43 -52 -43.5t-24.5 12.5t-18 31t-21.5 36q-30 44 -76 44t-73 -13t-45 -32.5t-31 -51.5t-20 -62.5t-11 -74.5q-6 -66 -6 -158v-151z" />
</font>
</defs>
</svg>
